<svg width="214" height="138" viewBox="0 0 214 138" fill="none" xmlns="http://www.w3.org/2000/svg">
<path d="M30.6246 76.1034C27.803 80.6721 24.0911 85.0964 21.7388 89.9253C19.3747 94.7782 19.912 100.634 19.5389 105.864C19.2745 109.57 18.9022 113.196 18.9782 116.921C19.0055 118.265 19.4208 119.174 20.7898 119.448C26.5597 120.604 29.8291 115.769 32.1775 111.133C36.0541 103.48 36.3264 94.3099 36.4263 85.9083C36.5073 79.0922 36.4023 72.0727 34.1186 65.5641C32.9803 62.3201 31.5015 60.4107 28.6188 63.2317C21.1557 70.5351 21.509 84.7951 24.3916 93.9639C26.0175 99.1354 28.8448 105.351 32.9539 109.082C37.7232 113.412 45.0576 115.324 51.2863 115.971C60.803 116.96 70.3889 116.375 79.9065 115.777C82.9656 115.584 86.0108 115.463 89.0727 115.366C90.2794 115.328 91.6315 115.351 90.5824 113.854C86.638 108.229 80.2855 103.592 74.6656 99.8598C67.7713 95.2814 60.5696 91.477 52.1706 91.2859C49.3571 91.2218 47.239 90.9018 47.016 94.2014C46.6947 98.9555 47.5645 103.56 50.2942 107.527C57.4375 117.905 74.1838 118.46 85.2768 116.662C89.1092 116.041 95.5658 114.802 96.1468 110.075C96.7772 104.947 98.6971 106.273 95.413 102.651C93.1487 100.154 88.2295 97.3978 84.9226 96.1363C81.4258 95.134 73.3566 94.1987 78.9281 95.134C80.1327 97.9368 84.3996 96.5363 86.4199 98.8231C91.9215 105.051 98.6902 110.741 106.327 114.114C109.699 115.603 113.223 115.71 116.55 116.921C120.975 118.532 124.892 121.822 129.922 121.975C130.361 121.988 133.247 122.434 131.604 122.277C125.465 121.692 119.336 120.134 113.315 118.865" stroke="#FFD04C" stroke-width="29" stroke-linecap="round"/>
<path d="M12.764 65.7879C12.0701 63.6912 11.8502 61.9081 11.7543 59.7308C11.6325 56.9622 11.416 54.1736 11.5449 51.4061C11.6521 49.1047 12.3122 46.5829 13.2467 44.4853C13.7591 43.3351 14.9208 42.6211 16.216 42.7255C20.5057 43.0713 23.2409 47.7038 23.9948 51.5678C24.0668 51.937 24.4827 54.8534 24.8404 54.8376C25.7312 54.7983 26.5749 55.4122 26.6182 56.3962" stroke="black" stroke-width="1.42211" stroke-linecap="round"/>
<path d="M26.6309 56.6905C27.1428 56.6679 28.4691 56.3759 28.9505 56.6791C29.2488 56.867 30.0985 57.127 30.2254 57.5075C30.3341 57.8334 30.7998 57.8098 30.8561 58.1411C30.9696 58.8099 32.0148 58.0883 32.2189 57.9652C33.2528 57.342 34.7982 57.5207 35.9621 57.4694C36.7148 57.4362 37.7629 57.5134 38.421 57.8073" stroke="black" stroke-width="1.42211" stroke-linecap="round"/>
<path d="M38.4721 57.9568C38.9988 57.1414 39.3608 55.9579 40.2853 55.6127C40.7458 55.4407 41.1401 54.789 41.5171 54.4677C42.1901 53.8942 42.6414 52.9389 43.4155 52.4926C43.7213 52.3163 44.1085 51.7638 44.4063 51.5101C44.8237 51.1544 45.226 50.7691 45.6399 50.4064C46.4094 49.7323 47.0596 48.8616 47.8738 48.2233C48.7194 47.5603 50.0374 46.4047 51.2439 47.1082C51.9519 47.521 52.6027 47.6765 53.1603 48.3627C53.8325 49.1902 54.1561 50.6278 54.2014 51.6577C54.2981 53.8542 54.6538 56.0313 54.4915 58.2508C54.397 59.5437 54.189 60.6785 53.7138 61.8815C53.5189 62.3749 53.1278 62.8 52.9692 63.288C52.8465 63.6651 52.4712 64.3514 52.1658 64.6142C51.3349 65.3294 50.8142 66.4123 49.9749 67.1476C49.443 67.6136 49.246 68.1168 48.7116 68.5851C48.4312 68.8307 47.7697 69.1353 47.9267 69.6383C48.1514 70.2729 46.8533 70.4519 46.8179 71.1474C46.8006 71.4868 46.7292 71.7944 46.7443 72.1377C46.7671 72.657 47.1825 73.1563 47.3079 73.6659" stroke="black" stroke-width="1.42211" stroke-linecap="round"/>
<path d="M16.5945 46.73C18.6136 47.407 20.1682 48.8077 20.9209 50.8362C21.5697 52.5849 21.5751 54.2657 21.6562 56.1089C21.6936 56.9597 21.3452 57.0359 20.6331 57.54C19.7809 58.1433 18.8338 58.5829 18.0891 59.3234C17.2416 60.166 16.1143 61.4079 15.8641 62.6378" stroke="black" stroke-width="1.42211" stroke-linecap="round"/>
<path d="M50.4811 50.1272C49.7877 50.7031 49.1071 51.2698 48.4041 51.8369C47.9797 52.1792 47.5723 52.5374 47.2147 52.9504C46.9058 53.3071 46.7785 53.762 46.4782 54.1235C45.4047 55.416 44.0767 56.9032 43.6331 58.5462C43.5226 58.9557 43.2633 59.5558 43.0448 59.925C42.6775 60.5454 43.4947 61.6671 43.8341 62.2111C44.516 63.3039 45.5233 64.78 45.5814 66.0996" stroke="black" stroke-width="1.42211" stroke-linecap="round"/>
<path d="M25.1711 77.6116L25.1705 77.609C25.1537 77.2277 25.0587 77.035 25.3637 76.8909C25.8747 76.6494 26.3238 76.691 26.8931 76.7039C27.4169 76.7157 27.9978 76.7519 28.514 76.8388C29.059 76.9306 29.6928 76.986 30.213 77.174C30.4128 77.2463 30.8127 77.4018 30.8422 77.6651C30.8635 77.855 30.8245 78.0718 30.8179 78.2638C30.7933 78.9804 30.2427 79.9362 29.6858 80.3349C29.0397 80.7974 28.323 81.0137 27.529 80.8592C26.8726 80.7316 26.4814 80.3065 26.0644 79.7938C25.5688 79.1846 25.3673 78.3873 25.1711 77.6116Z" fill="black" stroke="black" stroke-width="1.42211" stroke-linecap="round"/>
<path d="M20.7098 78.7734C20.9681 79.5032 21.1833 80.0934 21.6423 80.7092C22.1051 81.33 23.0038 81.4756 23.6905 81.6759C24.486 81.9078 25.4042 81.8681 26.2008 81.668C26.6049 81.5664 27.4942 81.4898 27.6372 80.9875" stroke="black" stroke-width="1.42211" stroke-linecap="round"/>
<path d="M27.6592 81.4491C28.0462 82.0489 28.6276 82.3558 29.2328 82.7167C29.4672 82.8565 29.783 83.0735 30.0708 83.0882C30.4694 83.1086 30.8824 83.0553 31.2811 83.0377C32.3988 82.9884 33.4166 82.8287 34.4309 82.3273C35.0051 82.0435 35.5963 81.7594 36.1307 81.4067C36.4133 81.2202 36.7019 81.0171 36.8179 80.685" stroke="black" stroke-width="1.42211" stroke-linecap="round"/>
<path d="M23.9564 82.4922C24.0111 83.7348 24.0967 85.078 25.0888 85.9875C25.386 86.26 25.7731 86.4519 26.1452 86.5894C26.86 86.8536 27.6932 86.6982 28.4423 86.6652C29.0157 86.6399 29.4742 86.4446 29.9596 86.1354C30.4699 85.8105 30.5545 85.3869 30.8121 84.8922C30.9657 84.5974 30.9407 84.303 31.0356 84.0053C31.119 83.7435 31.1915 83.53 31.1794 83.2534" stroke="black" stroke-width="1.42211" stroke-linecap="round"/>
<path d="M12.605 66.2253C12.4843 66.9737 12.1919 67.7023 12.0722 68.425C12.0055 68.8277 12.0601 69.2388 11.9942 69.6471C11.9417 69.9717 11.7842 70.8756 12.0083 70.6331C12.2454 70.3764 12.3138 70.0732 12.6311 69.8149C12.9916 69.5215 14.0237 68.9237 13.5292 69.9276C13.0582 70.8839 13.0003 72.215 13.0468 73.2713C13.1275 75.1061 13.5331 72.8312 14.0246 73.3659C14.3875 73.7608 12.9251 76.548 12.7874 77.0258C12.2325 78.9515 11.6698 80.9084 11.7582 82.918C11.7996 83.8592 11.841 84.8004 11.8824 85.7416C11.9146 86.4723 12.0129 88.6514 12.2245 89.3575C12.529 90.3739 12.4199 89.9384 12.7049 90.9573C13.7176 94.5768 13.257 98.4702 14.2402 102.099C14.8488 104.345 16.866 106.163 16.9694 108.513C17.0543 110.441 17.1854 112.238 16.6893 114.125C16.0908 116.402 14.9979 118.261 13.7954 120.23" stroke="black" stroke-width="1.42211" stroke-linecap="round"/>
<path d="M30.3479 114.695C29.2777 115.027 28.2158 115.412 27.2942 116.047C26.5147 116.584 25.8517 117.222 25.1195 117.821C24.5618 118.278 24.2441 118.972 23.6081 119.353C23.3771 119.492 23.1615 119.728 22.9067 119.74C20.9398 119.826 18.9767 119.972 17.0146 120.08C15.3341 120.172 13.4121 120.211 11.8275 120.819C11.3795 120.991 10.9331 121.087 10.4822 121.287C10.1367 121.44 10.0079 121.62 9.75418 121.874C9.31853 122.311 9.02564 123.098 8.94658 123.677C8.87285 124.217 8.86454 124.563 9.13461 125.028C9.43126 125.539 9.93334 125.912 10.3447 126.324C10.5904 126.571 11.1948 127.131 11.5768 127.114" stroke="black" stroke-width="1.42211" stroke-linecap="round"/>
<path d="M14.6169 123.623C14.0655 123.774 13.4394 124.031 12.9783 124.379C12.6292 124.643 12.4451 125.192 12.2906 125.582C12.045 126.202 11.6845 126.829 11.9198 127.534C12.0503 127.926 12.659 128.016 12.9953 128.091C13.7966 128.27 14.6848 128.272 15.5012 128.3C16.4373 128.332 17.3614 128.298 18.2976 128.257C19.2728 128.214 20.0854 128.049 21.0277 127.816" stroke="black" stroke-width="1.42211" stroke-linecap="round"/>
<path d="M21.014 127.917C22.2888 128.361 23.4156 128.394 24.753 128.335C25.4452 128.304 26.1365 128.289 26.8113 128.115C27.4455 127.95 28.0655 127.731 28.7211 127.665C30.5849 127.479 32.3931 127.249 34.2662 127.166C35.7897 127.099 37.3131 127.032 38.8366 126.965C40.614 126.886 42.3655 126.574 44.1343 126.403C44.8104 126.337 45.4957 126.33 46.1703 126.41C46.6077 126.462 47.0702 126.365 47.4972 126.458C48.1335 126.596 48.8079 126.715 49.4625 126.745" stroke="black" stroke-width="1.42211" stroke-linecap="round"/>
<path d="M15.0621 117.707C13.9504 118.026 12.7869 118.31 11.721 118.765C11.4722 118.871 11.1337 118.923 10.9132 119.073C10.8041 119.147 10.6939 119.096 10.5751 119.066C10.3218 119.002 10.0624 119.005 9.80181 119C9.14259 118.987 8.47618 119.049 7.81737 119.078C7.33502 119.099 6.85928 119.137 6.39169 119.263C6.20953 119.312 6.07379 119.485 5.94033 119.609C5.48841 120.029 5.04038 120.452 4.59143 120.875C4.32151 121.13 4.0101 121.354 3.77469 121.644C3.65011 121.797 3.58116 121.912 3.51586 122.113C3.40246 122.461 3.54154 122.729 3.70938 123.031C4.06121 123.665 4.60478 124.135 5.04406 124.7C5.21064 124.914 5.40967 125.202 5.66451 125.325C6.02502 125.499 6.35802 125.475 6.74786 125.479C7.04461 125.482 7.32058 125.539 7.61748 125.526C8.00471 125.509 8.40131 125.496 8.65616 125.217" stroke="black" stroke-width="1.42211" stroke-linecap="round"/>
<path d="M47.1141 73.9336C47.84 74.3386 48.5475 74.7825 49.2777 75.1785C49.4603 75.2775 49.6872 75.4476 49.9052 75.438C50.2146 75.4244 49.8749 75.707 49.7544 75.7532C49.1336 75.9913 48.6524 76.5121 48.9843 77.202C49.1081 77.4594 49.2711 77.7563 49.4897 77.9456C49.6471 78.0818 49.881 78.147 49.8924 78.4065C49.9054 78.7016 49.55 79.0417 49.3035 79.1452C48.9822 79.2801 48.9901 79.6284 49.0055 79.9775C49.0427 80.8232 49.5381 81.1507 49.9461 81.7976C50.0498 81.9622 50.3026 82.0631 50.4221 82.234C50.5953 82.4818 50.0161 82.8783 50.003 83.0929C49.9378 84.165 52.1592 85.019 52.8721 85.4024C53.6081 85.7982 54.3924 86.0793 55.124 86.4838C55.5985 86.7462 56.184 86.7965 56.6079 87.1311C57.0133 87.451 58.1918 87.7847 58.74 87.7816C59.0932 87.7797 59.4424 87.8464 59.815 87.8299C60.3505 87.8063 60.5398 87.7203 61.0006 87.4904C61.5415 87.2205 61.9307 86.6834 62.5891 86.6544C63.5136 86.6136 64.1714 87.1442 65.0031 87.3138C65.7659 87.4694 66.3036 88.1326 67.139 88.1716C67.9539 88.2097 68.795 88.1039 69.6097 88.0679C70.2667 88.039 70.8477 88.376 71.3822 88.7557C72.0467 89.2277 72.8265 89.2664 73.6022 89.2321" stroke="black" stroke-width="1.42211" stroke-linecap="round"/>
<path d="M73.2851 89.2468C74.2948 89.306 75.2101 89.1392 76.1528 88.8025C76.556 88.6586 76.9866 88.3847 77.4179 88.3496C78.5413 88.2582 79.6528 88.108 80.8 88.0574C81.6814 88.0185 82.5628 87.9796 83.4442 87.9407C84.6405 87.8879 85.7474 88.242 86.9147 88.2165C88.4266 88.1835 89.9348 88.2262 91.4572 88.159C92.9587 88.0928 94.793 87.76 96.2896 88.0173C97.855 88.2864 99.2259 88.9258 100.737 89.4017C101.181 89.5414 101.715 89.4014 102.173 89.4098C102.916 89.4235 103.652 89.6064 104.394 89.5898C105.075 89.5746 105.756 89.5297 106.436 89.4997C108.089 89.4268 109.608 89.4899 111.23 89.9236C112.208 90.185 113.254 90.4518 114.272 90.5519C115.264 90.6494 116.438 90.8371 117.377 91.1615C119.209 91.7951 120.775 92.7771 122.463 93.733C125.587 95.5013 133.723 102.291 136.675 104.364" stroke="black" stroke-width="1.42211" stroke-linecap="round"/>
<path d="M49.1316 126.663C55.5435 127.042 61.509 127.235 67.7762 125.928C69.05 125.662 70.452 125.643 71.7477 125.515C73.0428 125.388 74.3204 125.114 75.605 124.898C78.3442 124.437 81.3884 124.223 84.0726 125.033C85.2987 125.403 86.5411 125.969 87.7813 126.222" stroke="black" stroke-width="1.42211" stroke-linecap="round"/>
<path d="M101.376 92.8604C100.603 93.2907 99.8291 93.7177 99.0597 94.1532C98.5557 94.4384 97.9342 94.7106 97.5318 95.1506C97.1676 95.5489 96.891 96.0946 96.5982 96.5459C95.9579 97.5326 95.3871 98.4478 94.5873 99.3224C94.0988 99.8567 93.5701 100.535 92.948 100.917C92.3502 101.285 91.9219 101.729 91.5456 102.328C90.7428 103.606 89.662 105.012 89.4661 106.559C89.3938 107.13 89.2039 107.698 89.1998 108.277C89.1925 109.29 89.2715 110.317 89.3289 111.327C89.4158 112.857 90.211 114.592 91.0393 115.871C91.7807 117.017 92.6661 117.95 93.6611 118.862C93.9927 119.166 94.2986 119.395 94.6656 119.656C95.1595 120.007 95.8418 120.294 96.2619 120.679" stroke="black" stroke-width="1.42211" stroke-linecap="round"/>
<path d="M99.3534 121.002C97.4596 120.718 95.2312 120.614 93.3764 121.226C91.6338 121.801 90.1026 122.924 88.3668 123.481C87.9905 123.602 87.4645 123.782 87.3787 124.204C87.2781 124.698 87.3055 125.85 87.5923 126.237C87.8211 126.546 87.946 126.917 88.1514 127.252C88.2955 127.487 88.6339 127.405 88.7851 127.544" stroke="black" stroke-width="1.42211" stroke-linecap="round"/>
<path d="M90.9456 124.009C90.762 124.823 90.3291 125.587 89.8932 126.294C89.5721 126.815 89.1735 127.273 89.2021 127.923C89.2099 128.101 89.3589 128.539 89.5665 128.546C89.7759 128.554 89.9291 128.683 90.149 128.681C90.9534 128.673 91.7585 128.737 92.5636 128.73C93.1878 128.724 93.8841 128.657 94.4459 128.371C94.7716 128.205 95.1616 128.275 95.4843 128.086C96.1102 127.718 97.3237 127.857 97.7504 127.177C97.9954 126.787 98.0086 126.281 98.1311 125.851" stroke="black" stroke-width="1.42211" stroke-linecap="round"/>
<path d="M96.4757 128.165C98.5734 128.583 100.738 128.127 102.844 127.968C103.726 127.901 104.599 127.751 105.488 127.785C107.158 127.847 108.845 127.663 110.508 127.785" stroke="black" stroke-width="1.42211" stroke-linecap="round"/>
<path d="M110.582 127.779C111.469 127.878 112.396 127.737 113.273 127.881C114.225 128.039 115.201 127.974 116.162 127.931C117.043 127.892 117.94 127.96 118.732 127.541C118.999 127.4 119.039 127.097 119.305 126.995" stroke="black" stroke-width="1.42211" stroke-linecap="round"/>
<path d="M117.051 125.498C118.497 126.25 119.897 127.146 121.378 127.821C122.344 128.261 123.259 128.68 124.308 128.821C125.007 128.915 126.343 129.158 126.969 128.748C127.646 128.305 128.185 127.786 128.823 127.271C130.356 126.032 132.808 126.446 134.653 126.194C135.339 126.1 136.05 125.972 136.716 125.821C137.083 125.737 137.623 124.827 137.608 124.491" stroke="black" stroke-width="1.42211" stroke-linecap="round"/>
<path d="M136.724 104.41C139.546 105.316 142.196 107.082 144.368 109.21C145.253 110.076 145.94 110.803 146.611 111.865C146.925 112.363 147.174 112.944 147.446 113.465" stroke="black" stroke-width="1.42211" stroke-linecap="round"/>
<path d="M143.647 114.809C144.251 114.642 144.825 114.388 145.436 114.244C146.27 114.049 147.111 113.975 147.963 113.894C149.499 113.749 151.12 113.754 152.61 114.203C153.703 114.533 154.77 114.75 155.901 114.918C157.071 115.092 158.209 115.421 159.349 115.729C160.83 116.128 162.013 117.233 163.246 118.087C165.239 119.467 167.64 120.847 169.427 122.473C170.027 123.018 170.458 123.511 170.919 124.231" stroke="black" stroke-width="1.42211" stroke-linecap="round"/>
<path d="M137.515 124.543C139.116 125.898 140.859 127.357 142.805 128.192C143.783 128.612 144.878 128.777 145.912 129.004C148.725 129.622 151.729 129.365 154.591 129.524C155.848 129.594 157.085 129.839 158.342 129.907C159.369 129.962 160.388 130.054 161.395 130.27C163.45 130.71 165.621 130.875 167.719 130.782C169.03 130.724 170.895 130.459 171.555 129.139C171.98 128.288 172.122 127.486 172.08 126.545C172.046 125.765 171.375 125.034 171.014 124.385" stroke="black" stroke-width="1.42211" stroke-linecap="round"/>
<path d="M27.3736 82.0449C27.2027 83.1806 27.2219 84.3282 27.0982 85.4654C27.0719 85.7067 27.1015 86.0128 27.2145 86.2164" stroke="black" stroke-width="1.42211" stroke-linecap="round"/>
<path d="M24.5531 69.3066L24.4292 71.7961" stroke="black" stroke-width="1.42211" stroke-linecap="round"/>
<path d="M34.1492 70.5617C34.0736 71.2588 33.9336 71.9444 33.8588 72.6335" stroke="black" stroke-width="1.42211" stroke-linecap="round"/>
<path d="M2.84091 59.8828C2.80479 60.8411 2.70152 61.8312 2.91179 62.7786C3.15949 63.8948 3.70274 64.958 4.11675 66.0152" stroke="black" stroke-linecap="round"/>
<path d="M5.26422 59.2402C5.26422 60.8884 5.06016 62.6553 5.64662 64.2228" stroke="black" stroke-linecap="round"/>
<path d="M162.696 110.365C166.494 112.77 168.898 117.027 171.621 120.493" stroke="black" stroke-linecap="round"/>
<path d="M165.67 107.781C167.915 110.029 170.367 112.061 172.391 114.522C173.172 115.472 173.491 116.492 174 117.512" stroke="black" stroke-linecap="round"/>
<g filter="url(#filter0_d_802_8062)">
<path fill-rule="evenodd" clip-rule="evenodd" d="M81 3C69.402 3 60 12.402 60 24C60 33.329 66.0831 41.2372 74.4991 43.9744L73.1136 51.0001L86.021 45H189C200.598 45 210 35.598 210 24C210 12.402 200.598 3 189 3H81Z" fill="#FFF3D3"/>
</g>
<path d="M93.552 22.64C93.552 23.152 93.4667 23.632 93.296 24.08C93.1253 24.5173 92.8853 24.9067 92.576 25.248C92.2773 25.5893 91.92 25.872 91.504 26.096C91.0987 26.32 90.6507 26.4747 90.16 26.56V28.784H95.84C96.096 28.784 96.224 29.0453 96.224 29.568C96.224 30.08 96.096 30.336 95.84 30.336H82.48V28.784H88.384V26.544C87.904 26.448 87.4613 26.288 87.056 26.064C86.6507 25.84 86.2987 25.5573 86 25.216C85.712 24.8747 85.4827 24.4907 85.312 24.064C85.152 23.6267 85.072 23.152 85.072 22.64C85.072 22.0533 85.1787 21.5147 85.392 21.024C85.616 20.5333 85.9147 20.112 86.288 19.76C86.672 19.408 87.12 19.136 87.632 18.944C88.1547 18.752 88.7147 18.656 89.312 18.656C89.9093 18.656 90.464 18.752 90.976 18.944C91.4987 19.136 91.9467 19.408 92.32 19.76C92.704 20.112 93.0027 20.5333 93.216 21.024C93.44 21.5147 93.552 22.0533 93.552 22.64ZM91.792 22.64C91.792 22.2773 91.7227 21.9467 91.584 21.648C91.456 21.3387 91.28 21.0827 91.056 20.88C90.832 20.6667 90.5707 20.5013 90.272 20.384C89.9733 20.2667 89.6533 20.208 89.312 20.208C88.9707 20.208 88.6507 20.2667 88.352 20.384C88.0533 20.5013 87.792 20.6667 87.568 20.88C87.344 21.0827 87.1627 21.3387 87.024 21.648C86.896 21.9467 86.832 22.2773 86.832 22.64C86.832 23.0133 86.896 23.3493 87.024 23.648C87.1627 23.9467 87.344 24.2027 87.568 24.416C87.792 24.6187 88.0533 24.7787 88.352 24.896C88.6507 25.0133 88.9707 25.072 89.312 25.072C89.6533 25.072 89.9733 25.0133 90.272 24.896C90.5707 24.7787 90.832 24.6187 91.056 24.416C91.28 24.2027 91.456 23.9467 91.584 23.648C91.7227 23.3493 91.792 23.0133 91.792 22.64ZM98.6265 17.936H100.403V20.912C100.403 21.072 100.435 21.1787 100.499 21.232C100.563 21.2747 100.669 21.296 100.819 21.296H107.763C108.019 21.296 108.147 21.536 108.147 22.016C108.147 22.272 108.115 22.4587 108.051 22.576C107.997 22.6827 107.901 22.736 107.763 22.736H100.147C99.9972 22.736 99.8372 22.6827 99.6665 22.576C99.5065 22.4693 99.3518 22.3467 99.2025 22.208C99.0318 22.048 98.8932 21.888 98.7865 21.728C98.6798 21.5573 98.6265 21.4027 98.6265 21.264V17.936ZM96.5625 25.2V23.776H109.939C110.184 23.776 110.307 24.016 110.307 24.496C110.307 24.7733 110.275 24.96 110.211 25.056C110.147 25.152 110.056 25.2 109.939 25.2H96.5625ZM108.163 30.192H100.323V30.96C100.323 31.152 100.424 31.248 100.627 31.248H108.099C108.344 31.248 108.467 31.488 108.467 31.968C108.467 32.2453 108.435 32.432 108.371 32.528C108.307 32.6347 108.216 32.688 108.099 32.688H100.067C99.9172 32.688 99.7572 32.6347 99.5865 32.528C99.4265 32.4213 99.2718 32.2987 99.1225 32.16C98.9518 32 98.8132 31.8347 98.7065 31.664C98.5998 31.504 98.5465 31.3547 98.5465 31.216V28.784H106.387V27.712H98.5465V26.272H107.683C107.864 26.272 107.987 26.304 108.051 26.368C108.125 26.432 108.163 26.5547 108.163 26.736V30.192ZM122.933 31.28C122.933 31.408 122.848 31.4987 122.677 31.552C122.517 31.616 122.309 31.648 122.053 31.648C121.797 31.648 121.584 31.616 121.413 31.552C121.242 31.4987 121.157 31.408 121.157 31.28V18.112H122.933V31.28ZM110.805 29.536V27.984H120.037C120.293 27.984 120.421 28.2453 120.421 28.768C120.421 29.28 120.293 29.536 120.037 29.536H110.805ZM117.365 22.528C117.365 22.2187 117.312 21.936 117.205 21.68C117.109 21.4133 116.97 21.184 116.789 20.992C116.608 20.8 116.389 20.6507 116.133 20.544C115.888 20.4267 115.616 20.368 115.317 20.368C115.018 20.368 114.736 20.4267 114.469 20.544C114.213 20.6507 113.989 20.8 113.797 20.992C113.605 21.184 113.456 21.4133 113.349 21.68C113.242 21.936 113.189 22.2187 113.189 22.528C113.189 22.8373 113.242 23.1253 113.349 23.392C113.456 23.648 113.605 23.872 113.797 24.064C113.989 24.256 114.213 24.4107 114.469 24.528C114.736 24.6347 115.018 24.688 115.317 24.688C115.616 24.688 115.888 24.6347 116.133 24.528C116.389 24.4107 116.608 24.256 116.789 24.064C116.97 23.872 117.109 23.648 117.205 23.392C117.312 23.1253 117.365 22.8373 117.365 22.528ZM111.429 22.528C111.429 22.016 111.53 21.536 111.733 21.088C111.936 20.64 112.208 20.2507 112.549 19.92C112.901 19.5787 113.312 19.312 113.781 19.12C114.261 18.9173 114.773 18.816 115.317 18.816C115.861 18.816 116.362 18.9173 116.821 19.12C117.29 19.312 117.696 19.5787 118.037 19.92C118.378 20.2507 118.645 20.64 118.837 21.088C119.029 21.536 119.125 22.016 119.125 22.528C119.125 23.04 119.029 23.5253 118.837 23.984C118.645 24.432 118.378 24.8267 118.037 25.168C117.696 25.4987 117.29 25.76 116.821 25.952C116.362 26.144 115.861 26.24 115.317 26.24C114.773 26.24 114.261 26.144 113.781 25.952C113.312 25.76 112.901 25.4987 112.549 25.168C112.208 24.8267 111.936 24.432 111.733 23.984C111.53 23.5253 111.429 23.04 111.429 22.528ZM139.506 17.952H141.282V24.896C141.282 25.0347 141.196 25.1307 141.026 25.184C140.855 25.2373 140.647 25.264 140.402 25.264C140.124 25.264 139.906 25.232 139.746 25.168C139.586 25.104 139.506 25.0133 139.506 24.896V17.952ZM133.538 32.688C133.388 32.688 133.228 32.6347 133.058 32.528C132.898 32.4213 132.743 32.2987 132.594 32.16C132.423 32 132.284 31.8347 132.178 31.664C132.071 31.504 132.018 31.3547 132.018 31.216V28.48H139.346V27.344H132.018V25.888H140.642C140.823 25.888 140.946 25.92 141.01 25.984C141.084 26.0373 141.122 26.1547 141.122 26.336V29.936H133.794V30.88C133.794 31.1147 133.911 31.232 134.146 31.232H141.234C141.479 31.232 141.602 31.4773 141.602 31.968C141.602 32.2453 141.57 32.432 141.506 32.528C141.442 32.6347 141.351 32.688 141.234 32.688H133.538ZM134.946 21.424C134.946 20.8907 134.77 20.4427 134.418 20.08C134.076 19.7067 133.596 19.52 132.978 19.52C132.359 19.52 131.874 19.7067 131.522 20.08C131.18 20.4427 131.01 20.8907 131.01 21.424C131.01 21.9573 131.18 22.4107 131.522 22.784C131.874 23.1467 132.359 23.328 132.978 23.328C133.596 23.328 134.076 23.1467 134.418 22.784C134.77 22.4107 134.946 21.9573 134.946 21.424ZM136.706 21.424C136.706 21.8933 136.615 22.336 136.434 22.752C136.252 23.1573 135.996 23.52 135.666 23.84C135.335 24.1493 134.94 24.3947 134.482 24.576C134.034 24.7573 133.532 24.848 132.978 24.848C132.423 24.848 131.916 24.7573 131.458 24.576C130.999 24.3947 130.604 24.1493 130.274 23.84C129.954 23.52 129.703 23.1573 129.522 22.752C129.34 22.336 129.25 21.8933 129.25 21.424C129.25 20.9653 129.34 20.528 129.522 20.112C129.703 19.696 129.954 19.3333 130.274 19.024C130.604 18.704 130.999 18.4533 131.458 18.272C131.916 18.0907 132.423 18 132.978 18C133.532 18 134.034 18.0907 134.482 18.272C134.94 18.4533 135.335 18.704 135.666 19.024C135.996 19.3333 136.252 19.696 136.434 20.112C136.615 20.528 136.706 20.9653 136.706 21.424ZM150.492 28.256C149.927 27.808 149.372 27.248 148.828 26.576C148.284 25.8933 147.847 25.1787 147.516 24.432C147.356 24.8053 147.148 25.184 146.892 25.568C146.647 25.952 146.38 26.32 146.092 26.672C145.804 27.024 145.5 27.3547 145.18 27.664C144.871 27.9733 144.567 28.24 144.268 28.464C144.151 28.5493 144.028 28.5707 143.9 28.528C143.772 28.4747 143.601 28.3307 143.388 28.096C143.207 27.8933 143.073 27.7333 142.988 27.616C142.913 27.4987 142.935 27.392 143.052 27.296C143.511 26.8907 143.943 26.4693 144.348 26.032C144.764 25.584 145.127 25.1147 145.436 24.624C145.745 24.1227 145.991 23.6 146.172 23.056C146.353 22.512 146.444 21.936 146.444 21.328V20.768H143.404V19.216H150.988C151.244 19.216 151.372 19.4827 151.372 20.016C151.372 20.5173 151.244 20.768 150.988 20.768H148.348V21.296C148.348 21.8613 148.444 22.416 148.636 22.96C148.828 23.4933 149.073 24.0053 149.372 24.496C149.681 24.9867 150.028 25.4507 150.412 25.888C150.796 26.3147 151.18 26.704 151.564 27.056C151.66 27.1413 151.681 27.248 151.628 27.376C151.585 27.4933 151.468 27.6587 151.276 27.872C151.105 28.0533 150.956 28.1867 150.828 28.272C150.711 28.3467 150.599 28.3413 150.492 28.256ZM154.876 31.28C154.876 31.408 154.791 31.4987 154.62 31.552C154.46 31.616 154.252 31.648 153.996 31.648C153.74 31.648 153.527 31.616 153.356 31.552C153.185 31.4987 153.1 31.408 153.1 31.28V18.112H154.876V31.28ZM168.791 31.28C168.791 31.408 168.705 31.4987 168.535 31.552C168.375 31.616 168.167 31.648 167.911 31.648C167.655 31.648 167.441 31.616 167.271 31.552C167.1 31.4987 167.015 31.408 167.015 31.28V18.112H168.791V31.28ZM163.335 23.456C163.335 22.656 163.116 22.032 162.679 21.584C162.241 21.136 161.681 20.912 160.999 20.912C160.316 20.912 159.756 21.136 159.319 21.584C158.881 22.032 158.663 22.656 158.663 23.456C158.663 24.256 158.881 24.88 159.319 25.328C159.756 25.776 160.316 26 160.999 26C161.681 26 162.241 25.776 162.679 25.328C163.116 24.88 163.335 24.256 163.335 23.456ZM156.903 23.456C156.903 22.8267 157.004 22.2613 157.207 21.76C157.409 21.248 157.692 20.816 158.055 20.464C158.417 20.112 158.849 19.84 159.351 19.648C159.852 19.456 160.401 19.36 160.999 19.36C161.596 19.36 162.145 19.456 162.647 19.648C163.148 19.84 163.58 20.112 163.943 20.464C164.305 20.816 164.588 21.248 164.791 21.76C164.993 22.2613 165.095 22.8267 165.095 23.456C165.095 24.0853 164.993 24.656 164.791 25.168C164.588 25.6693 164.305 26.096 163.943 26.448C163.58 26.8 163.148 27.072 162.647 27.264C162.145 27.456 161.596 27.552 160.999 27.552C160.401 27.552 159.852 27.456 159.351 27.264C158.849 27.072 158.417 26.8 158.055 26.448C157.692 26.096 157.409 25.6693 157.207 25.168C157.004 24.656 156.903 24.0853 156.903 23.456ZM180.977 18.112H182.737V31.28C182.737 31.5253 182.444 31.648 181.857 31.648C181.27 31.648 180.977 31.5253 180.977 31.28V24.336H179.329V31.12C179.329 31.2373 179.26 31.328 179.121 31.392C178.993 31.456 178.774 31.488 178.465 31.488C177.878 31.488 177.585 31.3653 177.585 31.12V18.272H179.329V22.784H180.977V18.112ZM173.809 24.304C174.065 23.9307 174.257 23.5893 174.385 23.28C174.524 22.96 174.62 22.6773 174.673 22.432C174.726 22.176 174.753 21.9573 174.753 21.776C174.764 21.5947 174.769 21.4507 174.769 21.344C174.769 21.1627 174.732 21.0187 174.657 20.912C174.593 20.7947 174.465 20.736 174.273 20.736H170.721V19.216H174.673C174.876 19.216 175.073 19.3067 175.265 19.488C175.457 19.6587 175.66 19.8827 175.873 20.16C176.257 20.672 176.449 21.0827 176.449 21.392C176.449 22.16 176.332 22.8533 176.097 23.472C175.862 24.08 175.542 24.6827 175.137 25.28C174.604 26.016 174.033 26.6507 173.425 27.184C172.817 27.7173 172.188 28.2187 171.537 28.688C171.42 28.7733 171.302 28.784 171.185 28.72C171.068 28.656 170.918 28.5173 170.737 28.304C170.556 28.08 170.433 27.904 170.369 27.776C170.316 27.648 170.348 27.5413 170.465 27.456C171.212 26.8907 171.857 26.368 172.401 25.888C172.956 25.3973 173.425 24.8693 173.809 24.304ZM185.307 30.112C185.307 29.8027 185.414 29.5413 185.627 29.328C185.851 29.104 186.118 28.992 186.427 28.992C186.747 28.992 187.014 29.104 187.227 29.328C187.451 29.5413 187.563 29.8027 187.563 30.112C187.563 30.432 187.451 30.704 187.227 30.928C187.014 31.152 186.747 31.264 186.427 31.264C186.118 31.264 185.851 31.152 185.627 30.928C185.414 30.704 185.307 30.432 185.307 30.112ZM187.115 27.36C187.105 27.488 187.046 27.5787 186.939 27.632C186.843 27.6747 186.678 27.696 186.443 27.696C185.985 27.696 185.755 27.584 185.755 27.36L185.451 18.688H187.419L187.115 27.36Z" fill="#333333"/>
<defs>
<filter id="filter0_d_802_8062" x="56" y="0" width="158" height="56" filterUnits="userSpaceOnUse" color-interpolation-filters="sRGB">
<feFlood flood-opacity="0" result="BackgroundImageFix"/>
<feColorMatrix in="SourceAlpha" type="matrix" values="0 0 0 0 0 0 0 0 0 0 0 0 0 0 0 0 0 0 127 0" result="hardAlpha"/>
<feOffset dy="1"/>
<feGaussianBlur stdDeviation="2"/>
<feComposite in2="hardAlpha" operator="out"/>
<feColorMatrix type="matrix" values="0 0 0 0 0.620833 0 0 0 0 0.620833 0 0 0 0 0.620833 0 0 0 0.25 0"/>
<feBlend mode="normal" in2="BackgroundImageFix" result="effect1_dropShadow_802_8062"/>
<feBlend mode="normal" in="SourceGraphic" in2="effect1_dropShadow_802_8062" result="shape"/>
</filter>
</defs>
</svg>
