<svg width="175" height="95" viewBox="0 0 175 95" fill="none" xmlns="http://www.w3.org/2000/svg">
                    <ellipse rx="7.7227" ry="12.4266" transform="matrix(0.981914 -0.189326 0.19148 0.981497 78.234 18.8713)" fill="#FFD04C"/>
                    <ellipse rx="7.71686" ry="11.4699" transform="matrix(0.914213 -0.405233 0.40922 0.912436 63.4722 35.1313)" fill="#FFD04C"/>
                    <ellipse rx="7.72128" ry="12.4289" transform="matrix(-0.965972 -0.258647 -0.261494 0.965205 98.7318 19.2064)" fill="#FFD04C"/>
                    <ellipse rx="7.71686" ry="11.4699" transform="matrix(-0.914213 -0.405233 -0.40922 0.912436 110.967 39.4556)" fill="#FFD04C"/>
                    <path d="M66.1998 65.0909C69.1085 69.9106 78.5937 68.3796 84.566 66.1706C86.8138 65.5321 90.2353 65.3608 93.2821 67.2195C97.0907 69.5429 107.644 67.9703 106.632 60.6523C105.333 51.2706 94.9795 38.4612 87.1027 38.3755C75.7629 38.2522 62.564 59.0663 66.1998 65.0909Z" fill="#FFD04C"/>
                    <path d="M34.416 51.792V15.6401H22.1893L2.49063 52.5467V60.8488H24.3025V69.8302C24.3025 71.5661 26.1894 71.9435 29.3593 71.9435C32.6046 71.9435 34.416 71.5661 34.416 69.7547V60.8488H38.718C40.7558 60.8488 41.0577 59.2639 41.0577 56.3204C41.0577 53.4524 40.7558 51.792 38.718 51.792H34.416ZM13.3588 51.792L24.3025 30.9613V51.792H13.3588Z" fill="#FFD04C"/>
                    <path d="M164.411 51.792V15.6401H152.184L132.486 52.5467V60.8488H154.298V69.8302C154.298 71.5661 156.184 71.9435 159.354 71.9435C162.6 71.9435 164.411 71.5661 164.411 69.7547V60.8488H168.713C170.751 60.8488 171.053 59.2639 171.053 56.3204C171.053 53.4524 170.751 51.792 168.713 51.792H164.411ZM143.354 51.792L154.298 30.9613V51.792H143.354Z" fill="#FFD04C"/>
                </svg>