<svg width="139" height="139" viewBox="0 0 139 139" fill="none" xmlns="http://www.w3.org/2000/svg">
<g filter="url(#filter0_d_646_8550)">
<circle cx="69.8273" cy="68.8437" r="65" fill="#DFDFDF"/>
</g>
<path d="M55.6129 41.8372C54.0043 40.8982 53.4835 39.6596 51.1352 40.7189C48.269 42.3756 45.6659 44.875 45.2177 45.0694C44.2443 45.4916 43.1892 46.2125 42.396 46.9425C40.9401 48.2826 38.8688 49.1485 37.4921 50.7183C36.8252 51.4786 35.9793 52.1236 35.273 52.9032C34.8719 53.3459 34.2116 53.7751 33.9128 54.2752C33.6223 54.7617 33.2989 55.343 32.854 55.7057C31.8361 56.5355 31.1117 58.7892 30.8795 60.08C30.4489 62.4741 30.1915 65.0441 31.1854 67.3899C32.2616 69.9297 33.9309 72.1492 34.9133 74.6867C35.8525 77.1124 36.5732 79.4156 37.0012 81.9945C37.0921 82.5424 37.1104 83.7451 37.9346 83.5181C38.5817 83.3398 39.2515 82.3231 39.6961 81.8309C40.8988 80.4994 41.5085 78.3914 42.0493 76.7445C42.6071 75.0463 43.001 73.2295 43.5335 71.4987C44.0478 69.8271 44.6668 67.9232 44.874 66.1683C45.1802 63.5758 45.7636 61.1018 46.3152 58.5807C46.5726 57.4041 47.2825 55.3154 48.4174 54.7156" stroke="#9A9A9A" stroke-width="1.82805" stroke-linecap="round"/>
<path d="M55.0436 41.927C56.8634 40.7684 58.7184 38.451 60.871 37.858C63.399 37.1617 66.4085 36.7468 69.0192 36.5123C73.2765 36.1299 78.3322 37.4957 81.9143 39.8164C83.4575 40.8162 85.3666 41.8248 86.5652 43.2372C87.0798 43.8436 87.677 44.4284 88.2572 44.971C88.8605 45.5353 89.0898 46.4616 89.6232 47.0834C91.0362 48.7309 91.582 51.1062 93.3291 52.3597" stroke="#9A9A9A" stroke-width="1.82805" stroke-linecap="round"/>
<path d="M93.0464 51.8219C94.3146 52.1189 96.175 52.9184 97.4932 52.8411C98.9011 52.7585 100.695 54.3958 101.768 55.1659C104.477 57.1102 106.493 60.2073 107.048 63.5485C107.279 64.9392 107.509 66.3298 107.74 67.7205C108.034 69.489 108.906 70.7707 110.187 72.0466C113.571 75.4187 109.716 81.2768 107.855 84.5547C107.027 86.014 105.792 87.0786 104.861 88.4479C103.849 89.937 102.544 91.1659 101.222 92.3611C100.289 93.2056 99.3388 94.0282 98.2725 94.6992C97.1232 95.4224 95.7891 96.48 94.4397 96.7935C93.4961 97.0127 92.8201 97.8403 91.8636 97.9983C91.1886 98.1097 90.5251 98.4142 89.8028 98.5334C88.946 98.675 89.0905 97.1053 88.9817 96.4501C88.7865 95.2737 88.4054 94.1493 88.2085 92.9625C87.2513 87.1958 89.0901 81.1512 89.8703 75.4452C90.2039 73.0059 89.6927 70.275 89.2877 67.8347C89.0254 66.2544 88.7631 64.674 88.5009 63.0937" stroke="#9A9A9A" stroke-width="1.82805" stroke-linecap="round"/>
<path d="M53.2009 81.2041C54.7927 80.732 54.9701 80.8321 56.5476 80.9156C57.6634 81.027 58.9154 81.4864 59.7439 81.8862C61.0164 82.5003 62.6951 83.2842 63.5524 84.4672C64.5933 85.9036 64.0285 87.7781 62.6213 88.8547C61.8748 89.4259 61.3767 89.9609 60.4265 90.1179C59.8004 90.2213 59.2045 90.3157 58.5672 90.2556C55.7494 89.9895 52.7599 87.7578 52.2825 84.8813C52.1344 83.9889 52.0444 81.547 53.2009 81.2041Z" fill="#9A9A9A" stroke="#9A9A9A" stroke-width="1.82805" stroke-linecap="round"/>
<path d="M43.0311 75.7969C43.2071 76.8572 43.5257 77.8035 43.8039 78.833C43.9827 79.4945 44.5325 80.0012 44.6718 80.6834C44.7479 81.0561 45.0105 81.306 45.231 81.5994C45.5015 81.9595 45.5116 82.4108 45.5832 82.8422C45.6661 83.3417 45.749 83.8412 45.8319 84.3407" stroke="#9A9A9A" stroke-width="1.82805" stroke-linecap="round"/>
<path d="M45.8805 84.8933C45.8395 85.8808 45.5669 86.8696 45.5729 87.8538C45.5779 88.6634 45.7817 89.6258 45.9733 90.4049C46.5246 92.6472 48.5357 95.1438 50.33 96.521C51.2545 97.2306 52.1587 98.0048 53.2926 98.3564C55.2632 98.9675 57.1241 99.1178 59.1864 99.2459C61.8133 99.4091 64.4343 99.3586 67.0567 99.5472C68.3333 99.639 69.7984 99.3539 71.0642 99.1625C72.2525 98.9827 73.4006 98.7799 74.5486 98.4484C76.2733 97.9505 78.138 96.7603 79.3172 95.3823C79.9981 94.5867 80.8401 93.7857 81.6806 93.1446C82.3658 92.6219 83.0597 91.8709 83.8357 91.5031C84.35 91.2593 84.9444 90.7868 85.4472 90.4749C86.0331 90.1115 86.7359 89.7301 87.262 89.2822" stroke="#9A9A9A" stroke-width="1.82805" stroke-linecap="round"/>
<path d="M55.51 65.2994C55.6607 66.2076 55.7696 66.9593 55.6651 67.8769C55.602 68.4317 55.745 68.9969 55.6587 69.543" stroke="#9A9A9A" stroke-width="1.82805" stroke-linecap="round"/>
<path d="M69.0584 66.0316C69.1365 67.0994 69.2071 68.1321 69.0214 69.1873C68.9317 69.6972 68.7451 70.2806 68.8315 70.8011" stroke="#9A9A9A" stroke-width="1.82805" stroke-linecap="round"/>
<defs>
<filter id="filter0_d_646_8550" x="0.827271" y="0.84375" width="138" height="138" filterUnits="userSpaceOnUse" color-interpolation-filters="sRGB">
<feFlood flood-opacity="0" result="BackgroundImageFix"/>
<feColorMatrix in="SourceAlpha" type="matrix" values="0 0 0 0 0 0 0 0 0 0 0 0 0 0 0 0 0 0 127 0" result="hardAlpha"/>
<feOffset dy="1"/>
<feGaussianBlur stdDeviation="2"/>
<feComposite in2="hardAlpha" operator="out"/>
<feColorMatrix type="matrix" values="0 0 0 0 0.620833 0 0 0 0 0.620833 0 0 0 0 0.620833 0 0 0 0.25 0"/>
<feBlend mode="normal" in2="BackgroundImageFix" result="effect1_dropShadow_646_8550"/>
<feBlend mode="normal" in="SourceGraphic" in2="effect1_dropShadow_646_8550" result="shape"/>
</filter>
</defs>
</svg>