<svg  width="39" height="39" viewBox="0 0 39 39" fill="none" xmlns="http://www.w3.org/2000/svg">
<circle cx="19.3228" cy="19.4551" r="19" fill="#FFCC00"/>
<path d="M19.3228 23.4551C17.6659 23.4551 16.3228 22.1119 16.3228 20.4551C16.3228 18.7982 17.6659 17.4551 19.3228 17.4551C20.9796 17.4551 22.3228 18.7982 22.3228 20.4551C22.3228 22.1119 20.9796 23.4551 19.3228 23.4551Z" stroke="white" stroke-width="2" stroke-linecap="round" stroke-linejoin="round"/>
<path d="M11.3228 14.4551H27.3228C27.875 14.4551 28.3228 14.9028 28.3228 15.4551V25.4551C28.3228 26.0074 27.875 26.4551 27.3228 26.4551H11.3228C10.7705 26.4551 10.3228 26.0074 10.3228 25.4551V15.4551C10.3228 14.9028 10.7705 14.4551 11.3228 14.4551Z" stroke="white" stroke-width="2" stroke-linecap="round" stroke-linejoin="round"/>
<path d="M17.0435 11.4551H21.6019C22.0324 11.4551 22.4145 11.7305 22.5506 12.1389L22.884 13.1389C23.0998 13.7864 22.6178 14.4551 21.9353 14.4551H16.7101C16.0276 14.4551 15.5456 13.7864 15.7614 13.1389L16.0948 12.1389C16.2309 11.7305 16.613 11.4551 17.0435 11.4551Z" stroke="white" stroke-width="2" stroke-linecap="round" stroke-linejoin="round"/>
</svg>