<svg width="40" height="39" viewBox="0 0 40 39" fill="none" xmlns="http://www.w3.org/2000/svg">
    <path d="M26.3338 15.0013C19.3883 12.5895 20.1999 5.32885 21.4739 2C11.5464 2.37685 11.927 11.1386 13.3582 15.4724C10.1497 15.2463 8.18372 16.0063 7.60178 16.4145C3.2986 19.9946 5.24258 23.873 6.75247 25.3647C4.56628 25.1763 0.156146 25.9489 0.00515683 30.5464C-0.145832 35.144 3.05639 36.7645 4.67637 37H32.8452C38.0543 36.7739 39.1364 32.6034 39.0263 30.5464C39.3283 26.0619 34.4337 25.2234 31.9487 25.3647C33.7606 24.611 33.9934 21.9417 33.8833 20.7012C34.2607 19.8062 33.2793 17.4132 26.3338 15.0013Z" fill="#FFBC7F"/>
</svg>