<svg width="30" height="30" viewBox="0 0 30 30" fill="none" xmlns="http://www.w3.org/2000/svg">
    <path d="M18.64 5.15049L27.3514 20.0319C28.6033 22.1693 27.9884 24.9813 25.9773 26.312C25.3023 26.7603 24.5155 26.9992 23.7114 27H6.28741C3.92011 27 2 24.96 2 22.4413C2 21.5893 2.2249 20.7559 2.6474 20.0319L11.36 5.15049C12.6106 3.01314 15.2548 2.35847 17.2659 3.68915C17.8223 4.05715 18.2929 4.55716 18.64 5.15049ZM15 21.6666C15.3448 21.6666 15.6755 21.5261 15.9193 21.2761C16.1631 21.026 16.3 20.6869 16.3 20.3333C16.3 19.9797 16.1631 19.6405 15.9193 19.3905C15.6755 19.1404 15.3448 18.9999 15 18.9999C14.6553 18.9999 14.3246 19.1404 14.0808 19.3905C13.837 19.6405 13.7 19.9797 13.7 20.3333C13.7 20.6869 13.837 21.026 14.0808 21.2761C14.3246 21.5261 14.6553 21.6666 15 21.6666ZM15 9.66653C14.6553 9.66653 14.3246 9.80701 14.0808 10.0571C13.837 10.3071 13.7 10.6462 13.7 10.9999V16.3332C13.7 16.6869 13.837 17.026 14.0808 17.2761C14.3246 17.5261 14.6553 17.6666 15 17.6666C15.3448 17.6666 15.6755 17.5261 15.9193 17.2761C16.1631 17.026 16.3 16.6869 16.3 16.3332V10.9999C16.3 10.6462 16.1631 10.3071 15.9193 10.0571C15.6755 9.80701 15.3448 9.66653 15 9.66653Z" fill="#FF9696"/>
</svg>