<svg width="30" height="31" viewBox="0 0 30 31" fill="none" xmlns="http://www.w3.org/2000/svg">
    <path d="M15.0003 4.58203C9.01708 4.58203 4.16699 9.43212 4.16699 15.4154C4.16699 21.3986 9.01708 26.2487 15.0003 26.2487C20.9836 26.2487 25.8337 21.3986 25.8337 15.4154C25.8337 9.43212 20.9836 4.58203 15.0003 4.58203Z" stroke="white" stroke-width="1.6875" stroke-linecap="round" stroke-linejoin="round"/>
    <path d="M6.62744 22.2908C6.62744 22.2908 9.04219 19.2077 15.0005 19.2077C20.9589 19.2077 23.3747 22.2908 23.3747 22.2908M15.0005 15.416C15.8625 15.416 16.6891 15.0736 17.2986 14.4641C17.9081 13.8546 18.2505 13.028 18.2505 12.166C18.2505 11.3041 17.9081 10.4774 17.2986 9.86792C16.6891 9.25843 15.8625 8.91602 15.0005 8.91602C14.1386 8.91602 13.3119 9.25843 12.7024 9.86792C12.0929 10.4774 11.7505 11.3041 11.7505 12.166C11.7505 13.028 12.0929 13.8546 12.7024 14.4641C13.3119 15.0736 14.1386 15.416 15.0005 15.416Z" stroke="white" stroke-width="1.6875" stroke-linecap="round" stroke-linejoin="round"/>
</svg>