<svg width="108" height="108" viewBox="0 0 108 108" fill="none" xmlns="http://www.w3.org/2000/svg">
<g filter="url(#filter0_d_319_8080)">
<circle cx="54" cy="54" r="44" fill="white"/>
</g>
<ellipse rx="5.98376" ry="9.65551" transform="matrix(0.981808 -0.189878 0.190923 0.981605 46.9574 39.6151)" fill="#FFD04C"/>
<ellipse rx="5.98156" ry="8.90861" transform="matrix(0.913758 -0.406258 0.408191 0.912897 35.5211 52.2475)" fill="#FFD04C"/>
<ellipse rx="5.98323" ry="9.65638" transform="matrix(-0.965776 -0.259378 -0.260758 0.965404 62.8398 39.8739)" fill="#FFD04C"/>
<ellipse rx="5.98156" ry="8.90861" transform="matrix(-0.913758 -0.406258 -0.408191 0.912897 72.3168 55.6088)" fill="#FFD04C"/>
<path d="M37.6348 75.5302C39.8883 79.2756 47.2369 78.0858 51.8639 76.3692C53.6054 75.8731 56.2561 75.7399 58.6167 77.1843C61.5673 78.9898 69.7436 77.7677 68.9591 72.081C67.9532 64.7906 59.9317 54.8365 53.8292 54.77C45.0438 54.6741 34.818 70.8485 37.6348 75.5302Z" fill="#FFD04C"/>
<defs>
<filter id="filter0_d_319_8080" x="0" y="0" width="108" height="108" filterUnits="userSpaceOnUse" color-interpolation-filters="sRGB">
<feFlood flood-opacity="0" result="BackgroundImageFix"/>
<feColorMatrix in="SourceAlpha" type="matrix" values="0 0 0 0 0 0 0 0 0 0 0 0 0 0 0 0 0 0 127 0" result="hardAlpha"/>
<feOffset/>
<feGaussianBlur stdDeviation="5"/>
<feComposite in2="hardAlpha" operator="out"/>
<feColorMatrix type="matrix" values="0 0 0 0 1 0 0 0 0 0.524883 0 0 0 0 0.180833 0 0 0 0.25 0"/>
<feBlend mode="normal" in2="BackgroundImageFix" result="effect1_dropShadow_319_8080"/>
<feBlend mode="normal" in="SourceGraphic" in2="effect1_dropShadow_319_8080" result="shape"/>
</filter>
</defs>
</svg>