<svg width="24" height="24" viewBox="0 0 24 24" fill="none" xmlns="http://www.w3.org/2000/svg">
<path d="M12 0.9375L11.3903 1.8285C11.3903 1.8285 10.986 2.39325 10.5938 3.0705C10.3973 3.41025 10.2128 3.765 10.0545 4.125C9.89701 4.485 9.75001 4.8165 9.75001 5.25C9.75001 6.48375 10.7663 7.5 12 7.5C13.2338 7.5 14.25 6.48375 14.25 5.25C14.25 4.8165 14.1038 4.485 13.9455 4.125C13.7873 3.765 13.6028 3.41025 13.4063 3.0705C13.014 2.39325 12.609 1.82775 12.609 1.82775L12 0.9375ZM12 7.5H9.75001V10.5H5.25001C3.59251 10.5 2.25001 11.8425 2.25001 13.5C2.24813 14.2334 2.51494 14.942 3.00001 15.492V21H21V15.492C21.4851 14.942 21.7519 14.2334 21.75 13.5C21.75 11.8425 20.4075 10.5 18.75 10.5H14.25V7.5H12ZM12 3.65625C12.0495 3.73875 12.0443 3.73275 12.0938 3.8205C12.2723 4.128 12.4628 4.45575 12.5858 4.734C12.7088 5.013 12.75 5.27025 12.75 5.25C12.75 5.66625 12.4163 6 12 6C11.5838 6 11.25 5.66625 11.25 5.25C11.25 5.27025 11.2913 5.013 11.4143 4.734C11.5373 4.4565 11.7278 4.128 11.9063 3.8205C11.9558 3.73275 11.9505 3.738 12 3.65625ZM11.25 9H12.75V10.5H11.25V9ZM5.25001 12H18.75C19.6433 12 20.25 12.6068 20.25 13.5C20.25 14.3932 19.6433 15 18.75 15C17.8568 15 17.25 14.3932 17.25 13.5H15.75C15.75 14.3932 15.1433 15 14.25 15C13.3568 15 12.75 14.3932 12.75 13.5H11.25C11.25 14.3932 10.6433 15 9.75001 15C8.85676 15 8.25001 14.3932 8.25001 13.5H6.75001C6.75001 14.3932 6.14326 15 5.25001 15C4.35676 15 3.75001 14.3932 3.75001 13.5C3.75001 12.6068 4.35676 12 5.25001 12ZM7.50001 15.492C7.78193 15.8102 8.12841 16.0647 8.51638 16.2385C8.90434 16.4123 9.32489 16.5014 9.75001 16.5C10.1751 16.5014 10.5957 16.4123 10.9836 16.2385C11.3716 16.0647 11.7181 15.8102 12 15.492C12.2819 15.8102 12.6284 16.0647 13.0164 16.2385C13.4043 16.4123 13.8249 16.5014 14.25 16.5C14.6751 16.5014 15.0957 16.4123 15.4836 16.2385C15.8716 16.0647 16.2181 15.8102 16.5 15.492C16.7819 15.8102 17.1284 16.0647 17.5164 16.2385C17.9043 16.4123 18.3249 16.5014 18.75 16.5C19.011 16.5 19.26 16.4445 19.5 16.383V19.5H4.50001V16.383C4.74001 16.4445 4.98901 16.5 5.25001 16.5C5.67513 16.5014 6.09568 16.4123 6.48364 16.2385C6.87161 16.0647 7.21809 15.8102 7.50001 15.492Z" fill="#FFD04C"/>
</svg> 