<svg width="39" height="31" viewBox="0 0 39 31" fill="none" xmlns="http://www.w3.org/2000/svg">
    <path d="M7.05127 8.10742C7.05127 8.10742 8.85127 5.60742 13.0513 5.60742C17.2513 5.60742 19.0513 8.10742 19.0513 8.10742V25.6074C19.0513 25.6074 17.2513 24.3574 13.0513 24.3574C8.85127 24.3574 7.05127 25.6074 7.05127 25.6074V8.10742ZM19.0513 8.10742C19.0513 8.10742 20.8513 5.60742 25.0513 5.60742C29.2513 5.60742 31.0513 8.10742 31.0513 8.10742V25.6074C31.0513 25.6074 29.2513 24.3574 25.0513 24.3574C20.8513 24.3574 19.0513 25.6074 19.0513 25.6074V8.10742Z" fill="#FFD04C"/>
    <path d="M19.0513 8.10742C19.0513 8.10742 17.2513 5.60742 13.0513 5.60742C8.85127 5.60742 7.05127 8.10742 7.05127 8.10742V25.6074C7.05127 25.6074 8.85127 24.3574 13.0513 24.3574C17.2513 24.3574 19.0513 25.6074 19.0513 25.6074M19.0513 8.10742V25.6074M19.0513 8.10742C19.0513 8.10742 20.8513 5.60742 25.0513 5.60742C29.2513 5.60742 31.0513 8.10742 31.0513 8.10742V25.6074C31.0513 25.6074 29.2513 24.3574 25.0513 24.3574C20.8513 24.3574 19.0513 25.6074 19.0513 25.6074" stroke="#FFD04C" stroke-width="2" stroke-linecap="round" stroke-linejoin="round"/>
    <rect x="18.2715" y="5.22461" width="1.55943" height="16.7867" rx="0.779713" fill="#FFFBF1"/>
</svg>