<svg width="163" height="162" viewBox="0 0 163 162" fill="none" xmlns="http://www.w3.org/2000/svg">
<rect width="162" height="162" rx="29.7" fill="#FFFBF1"/>
<mask id="mask0_802_8036" style="mask-type:alpha" maskUnits="userSpaceOnUse" x="-1" y="16" width="164" height="147">
<rect x="-0.225" y="16.8746" width="162.45" height="145.35" rx="29.925" fill="#FFFBF1" stroke="black" stroke-width="0.45"/>
</mask>
<g mask="url(#mask0_802_8036)">
<mask id="mask1_802_8036" style="mask-type:alpha" maskUnits="userSpaceOnUse" x="15" y="24" width="166" height="138">
<path d="M15.7499 37.8365C15.7499 30.361 21.8101 24.3008 29.2856 24.3008L166.704 24.3008C174.18 24.3008 180.24 30.3609 180.24 37.8364V148.378C180.24 155.853 174.18 161.913 166.704 161.913L29.2856 161.913C21.8101 161.913 15.7499 155.853 15.7499 148.378V37.8365Z" fill="white"/>
</mask>
<g mask="url(#mask1_802_8036)">
<path d="M171 119.195L118.446 39.1504L75.8249 161.55L154.575 160.65L171 119.195Z" fill="#B9A38F"/>
<path d="M37.2454 82.1744C33.805 80.0242 35.9911 76.2614 37.5141 74.6487L35.0952 71.6922L34.5577 60.6725L39.3956 55.0282L63.8541 62.8227L67.0794 58.5223L88.3125 56.9096L93.1505 44.0085L105.514 32.4512L106.589 47.5025L115.996 39.9769L115.19 62.5539L121.641 75.7238L129.435 107.708L145.024 137.004C145.024 137.004 153.285 140.026 154.35 151.875C156.15 171.9 60.8976 162 60.8976 162L59.5537 137.273L62.2414 108.514L60.0912 98.0321C53.9094 93.6421 40.6857 84.3246 37.2454 82.1744Z" fill="#FFD04C"/>
<path d="M43.5023 87.3963C36.5404 102.037 38.2655 113.074 40.2404 117.324L33.7458 115.422C32.1639 109.245 30.7737 94.3298 37.8684 84.0852L43.5023 87.3963Z" fill="#BB6254" stroke="black" stroke-width="3.15" stroke-linejoin="round"/>
<path d="M90.8982 233.336C120.934 263.192 137.786 258.433 142.961 251.629C157.356 241.659 120.685 209.514 90.6427 182.364C66.6089 160.643 47.7085 183.972 40.7645 200.293C31.3834 209.361 30.4358 219.734 27.1643 225.983C26.1129 229.386 26.2723 235.734 35.3205 233.902C44.3688 232.07 42.8354 225.042 52.6686 211.796C55.6158 209.176 60.8621 203.479 90.8982 233.336Z" fill="#FFD04C" stroke="black" stroke-width="3.81436" stroke-linecap="round"/>
<path d="M115.687 68.7146C112.22 63.5214 105.445 51.6729 106.079 45.8249C106.712 39.9769 105.794 34.5843 105.255 32.619C104.717 30.6536 95.4535 40.2254 92.0036 47.1614C90.0379 51.1135 89.9021 57.472 88.5793 57.9741C87.2565 58.4761 66.9954 58.6557 66.9954 58.6557L63.8223 63.3648L37.6134 53.7852C34.4173 59.3375 30.1201 71.1491 38.4999 73.9769C36.4305 75.4298 33.4556 79.6966 38.1106 85.1397C46.3672 88.348 62.7084 96.7326 62.0199 104.604C57.8147 129.566 59.6074 173.379 65.4526 186.415L181.044 174.588C172.549 169.801 152.149 153.11 138.516 124.638C136.262 121.488 131.077 112.741 128.368 102.955C124.981 90.7222 126.784 83.5289 117.98 68.3449C109.177 53.1608 121.486 35.972 114.536 39.6109C108.976 42.5221 106.847 46.6067 106.322 48.3083" stroke="black" stroke-width="3.81436" stroke-linecap="round" stroke-linejoin="round"/>
<path d="M167.576 183.199C165.907 203.025 137.51 228.156 114.404 214.901C76.1182 192.938 80.7263 183.121 71.6844 189.057C59.7695 196.878 62.1124 209.714 49.3632 212.049C36.6139 214.385 38.1717 203.779 46.6795 189.536C52.4585 179.861 54.9931 165.345 78.4182 168.471C97.1582 170.971 109.167 170.825 115.424 172.957" stroke="black" stroke-width="3.81436" stroke-linecap="round"/>
<ellipse rx="2.71139" ry="3.0729" transform="matrix(-0.922469 -0.358662 -0.346236 0.948889 38.3194 56.9434)" fill="black"/>
<path d="M38.0175 73.7448C40.5457 75.1326 43.5686 75.1913 46.4797 74.972C47.7531 74.876 53.3411 74.4012 53.7387 72.8418" stroke="black" stroke-width="3.81436" stroke-linecap="round"/>
<ellipse rx="1.84038" ry="3.72141" transform="matrix(-0.97025 -0.200236 -0.19186 0.990609 74.2611 66.3531)" fill="black"/>
<path d="M34.4133 115.728C48.8401 101.683 45.6969 83.1168 42.3219 75.5896L48.2661 75.4544C57.4417 96.5395 46.8289 112.92 40.8721 118.276L34.4133 115.728Z" fill="#BB6254" stroke="black" stroke-width="3.15" stroke-linejoin="round"/>
</g>
</g>
</svg>
