<svg width="163" height="145" viewBox="0 0 163 145" fill="none" xmlns="http://www.w3.org/2000/svg">
<mask id="mask0_821_7312" style="mask-type:alpha" maskUnits="userSpaceOnUse" x="-1" y="-1" width="164" height="147">
<rect x="-0.225" y="-0.125391" width="162.45" height="145.35" fill="#FFFBF1" stroke="black" stroke-width="0.45"/>
</mask>
<g mask="url(#mask0_821_7312)">
<mask id="mask1_821_7312" style="mask-type:alpha" maskUnits="userSpaceOnUse" x="15" y="7" width="166" height="138">
<path d="M15.75 7.30085L180.24 7.30078V144.913L15.75 144.913V7.30085Z" fill="white"/>
</mask>
<g mask="url(#mask1_821_7312)">
<path d="M171 102.195L118.446 22.1504L75.825 144.55L164 143.65L171 102.195Z" fill="#B9A38F"/>
<path d="M37.2454 65.1744C33.8051 63.0242 35.9911 59.2614 37.5142 57.6487L35.0953 54.6922L34.5577 43.6725L39.3956 38.0282L63.8541 45.8227L67.0794 41.5223L88.3126 39.9096L93.1505 27.0085L105.514 15.4512L106.589 30.5025L115.996 22.9769L115.19 45.5539L121.641 58.7238L129.435 90.708L145.024 120.004C145.024 120.004 164.65 143.125 163 145.5C151.529 162.012 60.8976 145 60.8976 145L59.5537 120.273L62.2415 91.5143L60.0913 81.0321C53.9094 76.6421 40.6857 67.3246 37.2454 65.1744Z" fill="#FFD04C"/>
<path d="M43.5023 70.3963C36.5404 85.0367 38.2656 96.0742 40.2405 100.324L33.7459 98.4218C32.1639 92.2448 30.7738 77.3298 37.8684 67.0852L43.5023 70.3963Z" fill="#BB6254" stroke="black" stroke-width="3.15" stroke-linejoin="round"/>
<path d="M90.8982 216.336C120.934 246.192 137.786 241.433 142.961 234.629C157.356 224.659 120.685 192.514 90.6427 165.364C66.609 143.643 47.7085 166.972 40.7646 183.293C31.3835 192.361 30.4359 202.734 27.1644 208.983C26.113 212.386 26.2723 218.734 35.3206 216.902C44.3688 215.07 42.8355 208.042 52.6687 194.796C55.6158 192.176 60.8622 186.479 90.8982 216.336Z" fill="#FFD04C" stroke="black" stroke-width="3.81436" stroke-linecap="round"/>
<path d="M115.687 51.7146C112.22 46.5214 105.446 34.6729 106.079 28.8249C106.712 22.9769 105.794 17.5843 105.255 15.619C104.717 13.6536 95.4536 23.2254 92.0037 30.1614C90.038 34.1135 89.9022 40.472 88.5794 40.9741C87.2566 41.4761 66.9955 41.6557 66.9955 41.6557L63.8224 46.3648L37.6135 36.7852C34.4174 42.3375 30.1202 54.1491 38.5 56.9769C36.4306 58.4298 33.4557 62.6966 38.1106 68.1397C46.3673 71.348 62.7085 79.7326 62.02 87.6043C57.8148 112.566 59.6075 156.379 65.4527 169.415L181.044 157.588C172.549 152.801 152.15 136.11 138.516 107.638C136.262 104.488 131.077 95.7415 128.368 85.9551C124.981 73.7222 126.784 66.5289 117.98 51.3449C109.177 36.1608 121.486 18.972 114.536 22.6109C108.977 25.5221 106.847 29.6067 106.322 31.3083" stroke="black" stroke-width="3.81436" stroke-linecap="round" stroke-linejoin="round"/>
<path d="M167.576 166.199C165.907 186.025 137.51 211.156 114.404 197.901C76.1183 175.938 80.7264 166.121 71.6845 172.057C59.7696 179.878 62.1125 192.714 49.3632 195.049C36.614 197.385 38.1718 186.779 46.6796 172.536C52.4586 162.861 54.9932 148.345 78.4183 151.471C97.1583 153.971 109.168 153.825 115.424 155.957" stroke="black" stroke-width="3.81436" stroke-linecap="round"/>
<ellipse rx="2.71139" ry="3.0729" transform="matrix(-0.922469 -0.358662 -0.346236 0.948889 38.3195 39.9434)" fill="black"/>
<path d="M38.0176 56.7448C40.5458 58.1326 43.5687 58.1913 46.4797 57.972C47.7531 57.876 53.3411 57.4012 53.7388 55.8418" stroke="black" stroke-width="3.81436" stroke-linecap="round"/>
<ellipse rx="1.84038" ry="3.72141" transform="matrix(-0.97025 -0.200236 -0.19186 0.990609 74.2612 49.3531)" fill="black"/>
<path d="M34.4133 98.7282C48.8402 84.6826 45.6969 66.1168 42.3219 58.5896L48.2661 58.4544C57.4417 79.5395 46.829 95.9205 40.8722 101.276L34.4133 98.7282Z" fill="#BB6254" stroke="black" stroke-width="3.15" stroke-linejoin="round"/>
</g>
</g>
</svg>
