<svg width="39" height="46" viewBox="0 0 39 46" fill="none" xmlns="http://www.w3.org/2000/svg">
<path d="M8.32246 11.5636C8.80796 12.5571 8.87992 13.701 8.52268 14.7469C8.16544 15.7928 7.40783 16.6565 6.41429 17.1505C5.42075 17.6444 4.27144 17.7288 3.21571 17.3853C2.15999 17.0419 1.28306 16.2983 0.775204 15.3159C-0.266509 13.2431 -0.493767 8.59064 1.58966 7.55471C3.67308 6.51877 7.27981 9.49081 8.32246 11.5636Z" fill="#FFD04C"/>
<path d="M30.0038 11.6969C29.5139 12.7112 29.4446 13.8765 29.8109 14.9412C30.1773 16.0059 30.9499 16.8846 31.9621 17.3878C32.9742 17.8909 34.1447 17.9781 35.221 17.6306C36.2972 17.283 37.1929 16.5286 37.7147 15.5301C38.7611 13.448 38.9603 8.76114 36.8311 7.70196C34.7018 6.64277 31.0512 9.61481 30.0038 11.6969Z" fill="#FFD04C"/>
<path d="M18.642 6.24934C18.7763 6.85182 18.789 7.47482 18.6794 8.08223C18.5697 8.68963 18.3398 9.26934 18.0031 9.78772C17.6665 10.3061 17.2297 10.7529 16.718 11.1021C16.2064 11.4513 15.6301 11.696 15.0226 11.822C14.4151 11.948 13.7885 11.9528 13.1791 11.8361C12.5698 11.7194 11.9898 11.4836 11.4728 11.1423C10.9558 10.801 10.5121 10.361 10.1674 9.84781C9.82269 9.33465 9.58385 8.75854 9.46479 8.15289C8.93552 5.63187 10.0184 0.570295 12.5507 0.0448879C15.083 -0.480519 18.1174 3.72924 18.642 6.24934Z" fill="#FFD04C"/>
<path d="M19.9933 6.24934C19.8676 6.84864 19.8618 7.46669 19.9763 8.06821C20.0908 8.66972 20.3233 9.24292 20.6606 9.75507C20.9979 10.2672 21.4332 10.7083 21.9419 11.0531C22.4506 11.3979 23.0226 11.6397 23.6252 11.7647C24.8423 12.0171 26.1104 11.7784 27.1505 11.1011C27.6655 10.7657 28.109 10.3327 28.4558 9.82685C28.8025 9.321 29.0457 8.75219 29.1714 8.15289C29.6997 5.63187 28.6178 0.570295 26.0855 0.0448879C23.5533 -0.480519 20.5226 3.72924 19.9933 6.24934Z" fill="#FFD04C"/>
<path d="M31.4758 21.6241C30.1946 19.1419 28.1902 17.1018 25.7246 15.7704C23.2591 14.439 20.4469 13.8783 17.6558 14.1615C9.26129 14.7696 2.53129 22.7168 5.76303 31.8691C7.20217 35.2168 10.4853 38.3506 16.9189 44.5737C17.4437 45.0813 18.1484 45.3629 18.8804 45.3577C19.6125 45.3525 20.3131 45.0608 20.8305 44.5458C26.6188 38.7747 29.5654 36.2341 30.81 34.193C31.718 32.6953 32.3308 31.0393 32.6157 29.3136C33.0833 26.6953 32.6833 23.9968 31.4758 21.6241V21.6241ZM22.3865 31.7975C22.0001 31.7282 21.6185 31.6351 21.2438 31.5185C19.6263 30.9417 17.8572 30.9436 16.241 31.5241C15.6131 31.7 14.9751 31.8382 14.3305 31.9379C13.7932 31.928 13.2665 31.787 12.7968 31.5273C12.3271 31.2675 11.9288 30.897 11.6369 30.4482C11.3449 29.9995 11.1683 29.4863 11.1226 28.9538C11.0769 28.4213 11.1635 27.8857 11.3747 27.3943C11.7505 26.5413 12.2519 25.7487 12.8624 25.0425C13.6553 24.0112 14.5372 23.0478 15.3769 22.0528C15.7509 21.6139 16.0745 21.134 16.4784 20.7286C16.8026 20.3867 17.1965 20.1177 17.6337 19.9394C18.0709 19.7611 18.5413 19.6777 19.0135 19.6948C19.4857 19.7118 19.9488 19.829 20.3718 20.0384C20.7948 20.2478 21.168 20.5446 21.4664 20.909C21.9227 21.4418 22.2621 22.0723 22.7016 22.6219C23.3347 23.4142 24.0594 24.1377 24.6542 24.9551C25.3628 25.7768 25.9357 26.7053 26.3514 27.7058C26.5379 28.2616 26.5678 28.8576 26.4377 29.4291C26.3077 30.0006 26.0226 30.5258 25.6136 30.9476C25.2046 31.3693 24.6872 31.6716 24.1177 31.8216C23.5481 31.9716 22.9481 31.9636 22.3828 31.7984L22.3865 31.7975Z" fill="#FFD04C"/>
</svg>
