<svg width="511" height="92" viewBox="0 0 511 92" fill="none" xmlns="http://www.w3.org/2000/svg">
<path d="M454.389 21.9323C455.284 23.7714 455.417 25.8888 454.758 27.825C454.099 29.7611 452.702 31.3599 450.87 32.2742C449.038 33.1886 446.918 33.3449 444.971 32.7091C443.024 32.0733 441.407 30.6967 440.471 28.8782C438.55 25.0412 438.13 16.429 441.973 14.5113C445.815 12.5937 452.466 18.0953 454.389 21.9323Z" fill="#FFC710"/>
<path d="M494.374 22.1802C493.47 24.0578 493.342 26.2149 494.018 28.1857C494.694 30.1566 496.119 31.7833 497.985 32.7147C499.852 33.6461 502.01 33.8075 503.995 33.1641C505.98 32.5207 507.632 31.1242 508.594 29.2758C510.524 25.4216 510.891 16.7457 506.964 14.785C503.038 12.8243 496.305 18.3259 494.374 22.1802Z" fill="#FFC710"/>
<path d="M473.42 12.0996C473.668 13.2148 473.691 14.3681 473.489 15.4925C473.287 16.6168 472.863 17.69 472.242 18.6495C471.621 19.6091 470.815 20.4361 469.872 21.0825C468.928 21.729 467.865 22.1819 466.745 22.4152C465.625 22.6484 464.469 22.6573 463.345 22.4413C462.222 22.2254 461.152 21.7888 460.199 21.157C459.245 20.5252 458.427 19.7107 457.791 18.7608C457.156 17.8109 456.715 16.7444 456.496 15.6233C455.52 10.9565 457.517 1.58694 462.186 0.614343C466.856 -0.358251 472.452 7.43455 473.42 12.0996Z" fill="#FFC710"/>
<path d="M475.913 12.0996C475.681 13.2089 475.67 14.353 475.881 15.4665C476.092 16.58 476.521 17.6411 477.143 18.5891C477.765 19.5372 478.568 20.3536 479.506 20.9919C480.444 21.6302 481.499 22.0778 482.61 22.3092C484.855 22.7765 487.194 22.3346 489.112 21.0807C490.061 20.4599 490.879 19.6584 491.519 18.722C492.158 17.7856 492.607 16.7327 492.838 15.6233C493.813 10.9565 491.818 1.58694 487.148 0.614343C482.478 -0.358251 476.889 7.43455 475.913 12.0996Z" fill="#FFC710"/>
<path d="M497.09 40.5601C494.727 35.9653 491.031 32.1888 486.484 29.7242C481.937 27.2596 476.751 26.2216 471.604 26.7459C456.123 27.8717 443.712 42.5828 449.672 59.5249C452.326 65.7219 458.38 71.5231 470.245 83.0427C471.213 83.9823 472.512 84.5037 473.862 84.494C475.212 84.4844 476.504 83.9444 477.458 82.9911C488.133 72.308 493.567 67.6051 495.862 63.8267C497.537 61.0543 498.667 57.9889 499.192 54.7945C500.055 49.9476 499.317 44.9523 497.09 40.5601V40.5601ZM480.328 59.3923C479.615 59.2642 478.911 59.0917 478.221 58.8759C475.238 57.8081 471.975 57.8118 468.995 58.8862C467.837 59.2119 466.66 59.4677 465.471 59.6522C464.48 59.634 463.509 59.373 462.643 58.8921C461.777 58.4113 461.042 57.7254 460.504 56.8947C459.965 56.0641 459.64 55.1141 459.555 54.1283C459.471 53.1425 459.631 52.1512 460.02 51.2415C460.713 49.6625 461.638 48.1953 462.764 46.888C464.226 44.979 465.852 43.1956 467.401 41.3537C468.091 40.5412 468.687 39.653 469.432 38.9024C470.03 38.2696 470.757 37.7715 471.563 37.4415C472.369 37.1114 473.237 36.9571 474.108 36.9887C474.978 37.0203 475.832 37.2372 476.613 37.6248C477.393 38.0124 478.081 38.5619 478.631 39.2364C479.473 40.2227 480.099 41.3899 480.909 42.4072C482.077 43.8739 483.413 45.2131 484.51 46.7262C485.817 48.2473 486.873 49.9661 487.64 51.8181C487.984 52.847 488.039 53.9503 487.799 55.0082C487.559 56.0661 487.034 57.0382 486.279 57.819C485.525 58.5998 484.571 59.1594 483.52 59.4371C482.47 59.7147 481.364 59.6999 480.321 59.394L480.328 59.3923Z" fill="#FFC710"/>
<path d="M15.1362 39.0758L33.0054 39.3977C34.9327 39.4273 36.8208 39.945 38.4928 40.9022C39.2532 41.3359 39.8654 41.9879 40.2495 42.7736C40.6337 43.5592 40.772 44.4421 40.6467 45.3073C40.6665 46.2996 40.3622 47.2713 39.7798 48.0757C39.1974 48.88 38.3685 49.4733 37.4184 49.7658C35.1216 50.4897 32.7217 50.8345 30.3135 50.7865H28.3217C27.21 50.7865 25.8465 50.8043 24.2312 50.8399C22.616 50.8755 20.8915 50.8939 19.0577 50.895H14.0567C11.6735 50.9135 9.29421 50.6973 6.9535 50.2495C5.9513 50.0784 4.99487 49.704 4.14331 49.1495C3.29175 48.5949 2.56314 47.872 2.00248 47.0253C1.3383 46.0541 0.880516 44.9574 0.657376 43.8028C0.417593 42.6654 0.237446 41.5162 0.117629 40.36C0.0156483 39.4324 -0.0201016 38.4988 0.0106907 37.5662C0.0463302 36.7789 0.0641601 36.3135 0.0641601 36.1701L0.279722 16.9368V15.7559C0.283077 15.1279 0.318784 14.5005 0.386661 13.8762C0.459089 13.1968 0.567137 12.4979 0.710845 11.7795C0.8109 11.1688 1.03066 10.5839 1.35753 10.0581C1.88026 9.19355 2.55361 8.42927 3.34585 7.80132C4.16439 7.2512 5.10984 6.91827 6.09299 6.8339C8.15644 6.50131 10.246 6.35784 12.3357 6.40527C12.6932 6.40527 13.6434 6.42305 15.1863 6.45863C16.7291 6.4942 18.3961 6.52977 20.1873 6.56535L25.1883 6.67208C26.142 6.67202 27.0948 6.72605 28.0423 6.8339C28.9724 6.8339 29.941 6.85168 30.9481 6.88726C31.926 6.92024 32.8984 7.04648 33.8521 7.26425C34.7763 7.47596 35.6649 7.81976 36.4906 8.28504C37.358 8.79236 38.0801 9.51377 38.5876 10.38C39.3111 11.3838 39.7062 12.5863 39.7189 13.8228C39.6172 15.0767 39.1502 16.2734 38.3755 17.2656C38.0586 17.8151 37.6325 18.294 37.1233 18.6729C36.614 19.0518 36.0325 19.3227 35.4145 19.469C34.2291 19.7198 33.0204 19.8456 31.8086 19.8443H31.4068C29.2735 19.8304 27.1586 20.2379 25.1837 21.0432C23.2088 21.8486 21.413 23.0359 19.8996 24.5368C18.3862 26.0377 17.1852 27.8226 16.3656 29.7887C15.546 31.7548 15.1241 33.8633 15.1242 35.9928L15.1362 39.0758ZM6.09642 74.6384C5.99717 71.6906 7.0151 68.8138 8.94703 66.5822C11.0641 64.2872 13.705 62.5363 16.6452 61.4782C20.3204 60.1194 24.1545 59.2349 28.0544 58.8462C32.7004 58.3297 37.3722 58.0779 42.047 58.0922C46.7197 58.0787 51.3898 58.312 56.0378 58.7911C59.9329 59.1493 63.767 59.9977 67.4488 61.3164C70.3901 62.344 73.0327 64.0786 75.1434 66.367C77.1004 68.6692 78.1191 71.6215 77.9975 74.6384C78.154 77.759 77.136 80.8253 75.1434 83.2351C73.0382 85.5165 70.3923 87.2331 67.4488 88.2271C63.7638 89.5051 59.928 90.2996 56.0378 90.5906C51.6587 90.9831 46.9951 91.1799 42.047 91.1811C37.0988 91.1822 32.4346 90.9854 28.0544 90.5906C24.1647 90.3004 20.3294 89.5058 16.6452 88.2271C13.7002 87.2341 11.0529 85.5173 8.94703 83.2351C6.95484 80.8253 5.93795 77.7587 6.09642 74.6384V74.6384ZM63.4669 74.6384C63.454 74.0208 63.2648 73.4198 62.9215 72.9059C62.5781 72.3921 62.0948 71.9868 61.5286 71.7378C59.9609 70.9316 58.2715 70.3873 56.5275 70.1265C54.2457 69.7469 51.9415 69.5169 49.6296 69.438C47.0831 69.329 44.5538 69.275 42.0418 69.2762C39.5298 69.2773 37.0356 69.3313 34.5592 69.438C32.3221 69.5166 30.093 69.7467 27.8871 70.1265C26.2096 70.3833 24.5892 70.9285 23.0982 71.7378C22.5528 72.0033 22.0925 72.4155 21.769 72.9279C21.4454 73.4403 21.2715 74.0327 21.2668 74.6384C21.2947 75.2109 21.4805 75.7646 21.8037 76.2385C22.1268 76.7123 22.5748 77.0879 23.0982 77.3237C24.5885 78.1352 26.209 78.681 27.8871 78.9367C30.094 79.3209 32.3221 79.5721 34.5592 79.689C37.0356 79.8324 39.5298 79.9036 42.0418 79.9024H49.6296C51.936 79.9185 54.2409 79.7753 56.5275 79.4738C58.2788 79.283 59.9768 78.757 61.5286 77.9245C62.1269 77.6129 62.6252 77.1394 62.9665 76.5582C63.3077 75.977 63.4781 75.3117 63.4583 74.6384H63.4669ZM58.1917 46.4899C58.1905 47.2886 58.082 48.0835 57.8692 48.8534C57.6434 49.6622 57.2787 50.4258 56.7914 51.1102C56.3104 51.8067 55.6867 52.3935 54.9617 52.8316C54.1753 53.2801 53.2802 53.5034 52.3749 53.4771C51.5247 53.4934 50.6817 53.3183 49.9084 52.9649C49.1352 52.6115 48.4516 52.0887 47.9085 51.4355C46.7602 50.1701 46.1263 48.5226 46.1306 46.8153V13.6128C46.1331 12.7129 46.2052 11.8145 46.3461 10.9257C46.4718 10.0515 46.7257 9.20065 47.0997 8.40037C47.4701 7.63364 48.0238 6.96972 48.7121 6.46723C49.5068 5.90085 50.4348 5.54921 51.4058 5.44645C52.557 5.19915 53.7588 5.3707 54.7944 5.93016C55.6865 6.45748 56.4166 7.21901 56.9052 8.13184C57.4341 9.1423 57.7974 10.2308 57.9813 11.356C58.196 12.5619 58.3045 13.7841 58.3055 15.0089V15.1689C58.3055 15.1345 58.2848 15.3308 58.252 15.7611C58.2193 16.1915 58.1968 16.9954 58.1968 18.1711V23.5969C59.0715 23.7055 59.9522 23.7595 60.8336 23.7588C62.2339 23.7943 63.6135 23.8483 64.9724 23.9206L65.081 12.6385C65.0753 11.6059 65.2017 10.5768 65.457 9.57609C65.6786 8.66943 66.1024 7.82443 66.6969 7.10416C67.3106 6.39584 68.0843 5.84354 68.9542 5.49292C70.0539 5.07996 71.2402 4.95088 72.4032 5.11765C73.2623 5.23103 74.0774 5.5643 74.7692 6.08508C75.418 6.58838 75.9199 7.25586 76.223 8.01822C76.5574 8.8484 76.7924 9.71511 76.9231 10.6003C77.0623 11.4888 77.1343 12.3865 77.1387 13.2857V48.2079C77.1099 49.7974 76.5828 51.3379 75.6315 52.613C75.1743 53.2995 74.5483 53.8574 73.8134 54.2336C73.0786 54.6097 72.2593 54.7914 71.434 54.7613C70.3101 54.8032 69.1955 54.5441 68.2058 54.0107C67.3843 53.5501 66.6977 52.8831 66.214 52.0759C65.7358 51.2635 65.4076 50.372 65.2448 49.4439C65.0676 48.505 64.977 47.552 64.9741 46.5967V35.6382H58.1951L58.1917 46.4899Z" fill="#FFC710"/>
<path d="M99.6289 39.0758L117.498 39.3977C119.425 39.4273 121.313 39.945 122.985 40.9022C123.746 41.3359 124.358 41.9879 124.742 42.7736C125.126 43.5592 125.265 44.4421 125.139 45.3073C125.159 46.2995 124.854 47.2711 124.272 48.0754C123.69 48.8797 122.861 49.473 121.911 49.7658C119.614 50.4897 117.214 50.8345 114.806 50.7865H112.813C111.702 50.7865 110.339 50.8043 108.724 50.8399C107.109 50.8755 105.384 50.8939 103.55 50.895H98.5493C96.1661 50.9137 93.7868 50.6974 91.4462 50.2495C90.444 50.0784 89.4875 49.704 88.636 49.1495C87.7844 48.5949 87.0558 47.872 86.4951 47.0253C85.8303 46.0543 85.372 44.9575 85.1483 43.8028C84.9099 42.6652 84.7303 41.5161 84.6103 40.36C84.5074 39.4325 84.4717 38.4988 84.5033 37.5662C84.539 36.7789 84.5568 36.3135 84.5568 36.1701L84.7724 16.9368V15.7559C84.7757 15.1279 84.8114 14.5005 84.8793 13.8762C84.9505 13.1968 85.0586 12.4979 85.2035 11.7795C85.3038 11.1692 85.5229 10.5843 85.8485 10.0581C86.3723 9.19383 87.0461 8.42962 87.8385 7.80132C88.6565 7.25141 89.6013 6.91848 90.5839 6.8339C92.6479 6.50132 94.7381 6.35785 96.8283 6.40527C97.1847 6.40527 98.1349 6.42305 99.6789 6.45863C101.223 6.4942 102.89 6.52977 104.68 6.56535L109.681 6.67208C110.635 6.67202 111.587 6.72605 112.535 6.8339C113.465 6.8339 114.433 6.85168 115.439 6.88726C116.417 6.92013 117.39 7.04637 118.345 7.26425C119.269 7.47596 120.158 7.81976 120.983 8.28504C121.851 8.79236 122.573 9.51377 123.08 10.38C123.804 11.3838 124.199 12.5863 124.212 13.8228C124.109 15.0765 123.642 16.273 122.868 17.2656C122.551 17.8152 122.125 18.2943 121.615 18.6732C121.106 19.0521 120.524 19.323 119.905 19.469C118.721 19.7198 117.513 19.8456 116.301 19.8443H115.899C113.766 19.8304 111.651 20.2379 109.676 21.0432C107.701 21.8486 105.906 23.0359 104.392 24.5368C102.879 26.0377 101.678 27.8226 100.858 29.7887C100.039 31.7548 99.6168 33.8633 99.6168 35.9928L99.6289 39.0758ZM90.5874 74.6384C90.4886 71.6903 91.5071 68.8136 93.4397 66.5822C95.5561 64.2872 98.1964 62.5363 101.136 61.4782C104.812 60.1196 108.647 59.2351 112.547 58.8462C117.193 58.3296 121.864 58.0779 126.538 58.0922C131.211 58.0787 135.882 58.312 140.53 58.7911C144.426 59.1493 148.26 59.9977 151.941 61.3164C154.882 62.344 157.524 64.0786 159.634 66.367C161.592 68.6689 162.611 71.6214 162.488 74.6384C162.646 77.7591 161.628 80.8257 159.634 83.2351C157.53 85.5165 154.884 87.2331 151.941 88.2271C148.256 89.5051 144.421 90.2996 140.53 90.5906C136.151 90.9831 131.487 91.1799 126.538 91.1811C121.589 91.1822 116.925 90.9854 112.547 90.5906C108.657 90.3002 104.821 89.5057 101.136 88.2271C98.1916 87.2341 95.5449 85.5173 93.4397 83.2351C91.447 80.8255 90.4296 77.7589 90.5874 74.6384V74.6384ZM147.96 74.6384C147.947 74.0206 147.757 73.4193 147.414 72.9054C147.07 72.3915 146.586 71.9864 146.019 71.7378C144.452 70.9311 142.763 70.3868 141.018 70.1265C138.74 69.7474 136.438 69.5174 134.129 69.438C131.58 69.329 129.051 69.275 126.541 69.2762C124.032 69.2773 121.538 69.3313 119.06 69.438C116.823 69.5166 114.594 69.7467 112.388 70.1265C110.711 70.383 109.09 70.9282 107.6 71.7378C107.054 72.003 106.593 72.4151 106.27 72.9275C105.946 73.44 105.772 74.0326 105.768 74.6384C105.796 75.211 105.981 75.7649 106.304 76.2388C106.628 76.7127 107.076 77.0882 107.6 77.3237C109.09 78.1354 110.71 78.6813 112.388 78.9367C114.595 79.3209 116.823 79.5721 119.06 79.689C121.537 79.8324 124.03 79.9036 126.541 79.9024H134.129C136.433 79.918 138.735 79.7748 141.018 79.4738C142.77 79.2835 144.468 78.7575 146.019 77.9245C146.62 77.6142 147.12 77.1413 147.463 76.56C147.805 75.9787 147.977 75.3126 147.958 74.6384H147.96ZM142.684 46.4899C142.683 47.2886 142.575 48.0835 142.362 48.8534C142.136 49.6622 141.771 50.4258 141.284 51.1102C140.803 51.8063 140.179 52.393 139.454 52.8316C138.668 53.28 137.773 53.5034 136.868 53.4771C136.017 53.493 135.174 53.3178 134.401 52.9644C133.628 52.611 132.945 52.0884 132.401 51.4355C131.253 50.17 130.62 48.5224 130.625 46.8153V13.6128C130.627 12.7129 130.7 11.8145 130.84 10.9257C130.965 10.0514 131.219 9.20035 131.594 8.40037C131.964 7.63318 132.518 6.9691 133.207 6.46723C134.001 5.90112 134.928 5.5495 135.898 5.44645C137.05 5.19903 138.253 5.37058 139.289 5.93016C140.177 6.45896 140.903 7.22035 141.389 8.13184C141.917 9.14261 142.281 10.231 142.465 11.356C142.68 12.5619 142.789 13.7841 142.79 15.0089V15.1689C142.79 15.1345 142.769 15.3308 142.734 15.7611C142.7 16.1915 142.681 16.9954 142.681 18.1711V23.5969C143.555 23.7054 144.435 23.7595 145.316 23.7588C146.716 23.7943 148.096 23.8483 149.455 23.9206L149.563 12.6385C149.558 11.6059 149.684 10.5768 149.939 9.57609C150.16 8.66958 150.584 7.82459 151.177 7.10416C151.792 6.39577 152.566 5.84348 153.437 5.49292C154.536 5.07996 155.723 4.95088 156.886 5.11765C157.744 5.23134 158.559 5.56457 159.252 6.08508C159.9 6.58838 160.402 7.25586 160.705 8.01822C161.039 8.84864 161.274 9.71526 161.405 10.6003C161.545 11.4888 161.617 12.3865 161.621 13.2857V48.2079C161.591 49.7973 161.064 51.3376 160.114 52.613C159.657 53.2995 159.031 53.8574 158.296 54.2336C157.561 54.6097 156.742 54.7914 155.916 54.7613C154.792 54.8032 153.678 54.5441 152.688 54.0107C151.866 53.5497 151.179 52.8828 150.695 52.0759C150.218 51.2628 149.89 50.3716 149.725 49.4439C149.55 48.5049 149.46 47.5519 149.456 46.5967V35.6382H142.677L142.684 46.4899Z" fill="#FFC710"/>
<path d="M220.07 34.0258C220.082 37.3459 219.308 40.6218 217.81 43.5865C216.312 46.5852 214.138 49.1965 211.459 51.2157C209.063 52.9867 206.337 54.2646 203.442 54.9753C197.698 56.4035 191.648 55.9712 186.166 53.7411C183.51 52.675 181.054 51.1675 178.902 49.2826C176.78 47.4144 175.043 45.151 173.789 42.619C172.475 39.9467 171.811 37.0025 171.851 34.0258C171.811 31.3905 172.249 28.7698 173.143 26.2898C173.967 24.0608 175.168 21.9892 176.693 20.165H174.755C173.09 20.2127 171.47 19.6163 170.235 18.5004C169.655 18.0013 169.191 17.3821 168.876 16.6859C168.56 15.9896 168.4 15.2331 168.407 14.4689C168.393 13.6891 168.549 12.9156 168.865 12.2022C169.181 11.4887 169.648 10.8524 170.235 10.3375C171.47 9.22163 173.09 8.62525 174.755 8.67293H188.965V5.23012C188.962 4.52846 189.126 3.83615 189.444 3.21031C189.762 2.58447 190.224 2.04302 190.793 1.63065C192.071 0.688228 193.618 0.179688 195.207 0.179688C196.797 0.179688 198.344 0.688228 199.622 1.63065C200.19 2.04351 200.652 2.58505 200.97 3.21078C201.288 3.83651 201.452 4.52858 201.45 5.23012V8.67293H216.41C218.076 8.62534 219.696 9.22168 220.932 10.3375C221.519 10.8521 221.987 11.4883 222.303 12.2018C222.619 12.9153 222.775 13.6889 222.761 14.4689C222.768 15.2333 222.608 15.99 222.292 16.6862C221.976 17.3825 221.512 18.0016 220.932 18.5004C219.696 19.6163 218.076 20.2126 216.41 20.165H215.118C216.649 21.9957 217.868 24.0648 218.726 26.2898C219.653 28.7622 220.109 31.3861 220.07 34.0258ZM190.793 90.5344C188.288 90.6541 185.808 89.9974 183.691 88.6546C182.913 88.2122 182.259 87.582 181.789 86.8216C181.319 86.0613 181.047 85.1952 180.999 84.3029V68.8309C180.854 67.2229 180.854 65.6052 180.999 63.9972C181.094 62.5951 181.731 61.2845 182.776 60.3426C183.895 59.3835 185.337 58.8845 186.811 58.9466C187.168 58.9466 187.815 58.9655 188.749 58.9999C189.404 58.9944 190.057 59.0849 190.686 59.2685C191.522 59.4979 192.283 59.9425 192.893 60.5578C193.432 61.1332 193.852 61.808 194.131 62.5443C194.419 63.3044 194.6 64.1002 194.671 64.9095C194.738 65.7341 194.813 66.5397 194.883 67.3195C194.883 67.6064 194.901 68.2691 194.937 69.3077C194.972 70.3463 195.009 71.4566 195.045 72.6386C195.081 73.8195 195.117 74.9098 195.152 75.9093C195.148 76.5219 195.203 77.1334 195.314 77.7357C195.899 77.8682 196.493 77.958 197.091 78.0043C198.06 78.1133 199.872 78.1672 202.526 78.1661C204.826 78.1661 206.243 78.1305 206.777 78.0593C207.317 77.9888 207.619 77.9509 207.693 77.9509H242.89C243.673 78.1773 244.432 78.4836 245.152 78.865C245.753 79.2098 246.297 79.6447 246.765 80.1543C247.259 80.6771 247.595 81.3288 247.734 82.0341C247.97 83.1292 247.967 84.2623 247.725 85.3563C247.484 86.4502 247.009 87.4795 246.334 88.374C245.63 89.2754 244.646 89.9174 243.536 90.1987C242.529 90.4145 241.991 90.5223 241.921 90.5223L190.793 90.5344ZM198.113 43.5813C200.365 43.1737 202.445 42.1079 204.089 40.5189C204.942 39.6726 205.608 38.6569 206.044 37.5376C206.479 36.4182 206.674 35.2201 206.617 34.0206C206.687 32.1088 206.139 30.2252 205.054 28.6481C204.044 27.2426 202.692 26.117 201.126 25.3774C199.507 24.6158 197.742 24.213 195.952 24.1966C194.173 24.1426 192.404 24.491 190.779 25.2156C189.199 25.9338 187.843 27.0636 186.852 28.4863C185.762 30.1213 185.215 32.0578 185.29 34.0206C185.238 35.7438 185.647 37.4496 186.475 38.9628C187.206 40.2633 188.241 41.3686 189.491 42.1852C190.727 42.98 192.123 43.4937 193.58 43.6898C195.086 43.9084 196.618 43.8735 198.113 43.5865V43.5813ZM244.721 38.9628V53.037C244.647 53.8254 244.549 54.6327 244.397 55.447C244.238 56.3067 243.908 57.126 243.428 57.8569C242.998 58.7139 242.324 59.4244 241.489 59.8985C240.388 60.6737 239.071 61.0871 237.723 61.0811C236.623 61.0944 235.541 60.796 234.604 60.2204C233.861 59.8328 233.217 59.2818 232.719 58.6092C232.297 58.0395 231.935 57.4274 231.641 56.7828C231.349 56.0577 231.151 55.2989 231.049 54.5243V13.6116C231.049 13.2536 231.103 12.4503 231.21 11.2017C231.277 10.1039 231.552 9.02878 232.019 8.03256C232.514 7.22803 233.212 6.56664 234.043 6.11378C234.873 5.66092 235.808 5.43227 236.754 5.45046C237.831 5.20929 238.951 5.22975 240.019 5.51012C241.086 5.79049 242.071 6.32259 242.89 7.06169C243.284 7.57246 243.61 8.13268 243.859 8.72801C244.076 9.26987 244.256 9.82606 244.397 10.3926C244.615 11.1265 244.742 11.8845 244.775 12.6494C244.809 13.4375 244.792 14.2271 244.721 15.0129V26.9388C245.004 26.9388 245.583 26.9766 246.446 27.0455C247.308 27.1143 248.203 27.1712 249.139 27.2073C250.076 27.2435 250.95 27.2968 251.774 27.3674C252.335 27.4041 252.892 27.4759 253.444 27.5826C254.603 27.7301 255.711 28.154 256.672 28.8185C257.3 29.3299 257.752 30.0253 257.964 30.8068C258.116 31.7122 258.188 32.6292 258.179 33.5472C258.209 34.4671 257.985 35.3776 257.532 36.1793C257.087 36.8773 256.487 37.4633 255.777 37.8917C255.068 38.3202 254.27 38.5795 253.444 38.6495C251.407 38.8782 249.358 38.9863 247.308 38.9731L244.721 38.9628Z" fill="#FFC710"/>
<path d="M297.274 14.2558C297.274 13.5414 297.31 12.5344 297.381 11.2485C297.458 9.93081 297.712 8.62936 298.135 7.37876C298.54 6.1335 299.221 4.99554 300.128 4.04958C300.65 3.55841 301.269 3.18063 301.945 2.94005C302.621 2.69947 303.339 2.60132 304.055 2.6518C305.473 2.62501 306.865 3.0382 308.038 3.8344C309.03 4.60108 309.732 5.68056 310.03 6.89677C310.519 8.4891 310.844 10.1273 310.999 11.7856C311.176 13.5758 311.266 15.3667 311.268 17.1581C311.271 18.9495 311.235 20.4178 311.161 21.5632V63.3038C311.161 64.6304 311.089 66.1344 310.946 67.8156C310.802 69.4969 310.569 71.2183 310.246 72.9798C310.012 74.4541 309.558 75.8851 308.899 77.2248C308.639 77.79 308.294 78.3123 307.876 78.7741C307.409 79.3112 307.069 79.687 306.854 79.9016C306.315 80.4485 305.676 80.8863 304.97 81.1909C304.29 81.4765 303.588 81.7101 302.872 81.8898C302.234 82.0525 301.587 82.1784 300.935 82.2668C300.542 82.3223 300.147 82.358 299.75 82.3735H277.146C275.503 82.3802 273.864 82.2361 272.248 81.9432C270.695 81.6516 269.237 80.9882 267.997 80.0101C267.068 79.2967 266.344 78.3515 265.897 77.2696C265.448 76.2206 265.123 75.123 264.928 73.9989C264.759 73.0231 264.67 72.0352 264.662 71.045V13.1816C264.673 12.0615 264.798 10.9454 265.036 9.85071C265.273 8.67349 265.672 7.53461 266.221 6.46642C266.728 5.46584 267.443 4.58534 268.32 3.88431C269.246 3.18287 270.386 2.8223 271.548 2.86354C273.068 2.71707 274.593 3.096 275.866 3.937C277.14 4.77799 278.086 6.03005 278.546 7.48377C278.896 8.45333 279.113 9.4654 279.193 10.4928C279.264 11.4969 279.336 12.4994 279.408 13.5001V13.7153C279.408 14.2179 279.388 15.4522 279.353 17.4214C279.319 19.3907 279.3 21.4513 279.3 23.5996V29.3491C279.3 31.0326 279.371 31.8744 279.515 31.8744L297.058 31.7659C297.155 31.3786 297.209 30.9822 297.221 30.5833C297.256 30.0095 297.274 29.3829 297.274 28.7035V14.2437V14.2558ZM297.274 69.2668L297.165 45.0913L292.057 45.1206C288.467 45.1415 285.03 46.5801 282.499 49.122C279.967 51.6639 278.546 55.1026 278.546 58.687V69.3752L297.274 69.2668ZM341.73 33.3806C342.072 33.3791 342.414 33.4155 342.749 33.4891C343.086 33.5613 343.429 33.5971 343.773 33.5958C344.165 33.6723 344.56 33.7263 344.958 33.7576C345.387 33.7932 345.817 33.8465 346.25 33.9177C347.073 34.0739 347.869 34.3457 348.616 34.725C349.382 35.0939 349.993 35.7214 350.34 36.4964C350.857 37.3354 351.119 38.3057 351.095 39.2902C351.095 39.8652 351.075 40.3833 351.04 40.8395C350.993 41.3657 350.903 41.8873 350.771 42.3991C350.626 42.9729 350.465 43.5811 350.287 44.2237C350.133 44.8295 349.771 45.362 349.264 45.7282C348.396 46.379 347.409 46.8539 346.358 47.126C344.964 47.2764 343.559 47.312 342.159 47.2328C340.761 47.1616 339.36 47.1616 337.962 47.2328C337.92 47.2356 337.88 47.2466 337.843 47.2652C337.806 47.2838 337.773 47.3097 337.746 47.3412H337.639L337.531 47.4479V61.307C337.675 65.0332 337.675 68.6866 337.531 72.2672V73.77C337.531 74.7018 337.513 75.7226 337.477 76.8323C337.443 77.9264 337.353 79.018 337.208 80.103C337.071 81.1482 336.819 82.1752 336.456 83.1654C336.136 84.0687 335.621 84.8912 334.949 85.5754C334.526 86.0701 333.995 86.4626 333.398 86.7232C332.8 86.9838 332.151 87.1057 331.5 87.0799L331.284 86.9731C329.77 86.9758 328.303 86.4421 327.146 85.4669C326.096 84.5215 325.285 83.3418 324.78 82.0241C324.241 80.6638 323.897 79.2349 323.755 77.7791C323.612 76.3113 323.54 75.0042 323.54 73.8577V9.04508C323.551 8.3242 323.623 7.60554 323.755 6.89677C323.914 6.01769 324.149 5.15383 324.455 4.31466C324.735 3.48991 325.195 2.73776 325.802 2.11299C326.424 1.54777 327.185 1.15799 328.008 0.983742C328.868 0.748342 329.755 0.621699 330.646 0.606764C331.385 0.590637 332.119 0.725231 332.804 1.00229C333.489 1.27934 334.109 1.69303 334.628 2.21801C335.541 3.0608 336.163 4.17095 336.404 5.38883C336.577 6.50086 336.749 7.66279 336.886 8.88155C336.97 9.30533 337.007 9.73725 336.994 10.1692C337.139 11.3896 337.227 12.6411 337.263 13.9304C337.3 15.2198 337.355 16.5126 337.425 17.7984C337.425 18.5868 337.443 19.3569 337.479 20.1086C337.515 20.8608 337.532 21.632 337.532 22.417C337.462 22.8256 337.444 23.2415 337.479 23.6547C337.515 24.0494 337.532 24.4253 337.532 24.7822V31.9811C337.527 32.3849 337.6 32.786 337.748 33.162C337.748 33.2343 338.108 33.2704 338.826 33.2704H340.009C340.5 33.4048 341.012 33.4411 341.518 33.3772L341.73 33.3806Z" fill="#FFC710"/>
<path d="M356.256 61.2159C355.232 61.1412 354.22 60.9424 353.244 60.6237C352.162 60.2519 351.196 59.6039 350.443 58.744C349.987 58.2353 349.638 57.6405 349.416 56.9947C349.195 56.3489 349.105 55.6653 349.153 54.9844C349.107 53.6152 349.566 52.2768 350.443 51.2231C350.955 50.6444 351.602 50.2019 352.328 49.9355C353.045 49.6603 353.783 49.4444 354.535 49.29C355.155 49.1575 355.785 49.0854 356.419 49.0748H399.634C401.069 49.0748 402.576 49.1465 404.156 49.29C405.641 49.3958 407.045 50.0029 408.138 51.0114C408.734 51.5826 409.194 52.2804 409.483 53.053C409.741 53.814 409.869 54.6131 409.861 55.4165C409.871 56.4503 409.611 57.469 409.107 58.3721C408.615 59.2594 407.808 59.9302 406.844 60.2519C405.586 60.8174 404.239 61.1627 402.863 61.2727C401.5 61.3794 400.137 61.4689 398.774 61.5412C396.691 61.6135 395.076 61.6853 393.93 61.7564C392.783 61.8287 391.829 61.8821 391.076 61.9182C390.322 61.9544 389.605 61.9716 388.925 61.9716H386.071L385.963 78.0874C386.003 80.055 385.314 81.9682 384.028 83.4599C383.435 84.1818 382.673 84.7459 381.809 85.1019C380.945 85.4578 380.006 85.5946 379.077 85.4998C378.31 85.433 377.552 85.2894 376.814 85.0711C376.108 84.8619 375.45 84.515 374.879 84.0503C374.263 83.5284 373.782 82.8651 373.479 82.1172C373.082 81.0741 372.899 79.9617 372.941 78.8465L372.617 61.87C369.82 61.7989 367.201 61.7093 364.762 61.6015C362.322 61.4936 359.487 61.3651 356.256 61.2159ZM373.479 14.5864C370.823 14.5864 368.043 14.6754 365.138 14.8533C362.355 15.0387 359.56 14.9493 356.794 14.5864C356.143 14.4714 355.538 14.1724 355.052 13.7248C354.566 13.2772 354.218 12.6999 354.051 12.0611C353.431 10.4702 353.121 8.77597 353.137 7.06908C353.12 6.35723 353.279 5.65217 353.598 5.01524C353.916 4.37832 354.386 3.82883 354.966 3.41453C356.051 2.65649 357.25 2.07543 358.517 1.69313C359.935 1.2773 361.4 1.04245 362.877 0.994226C364.277 0.958651 365.766 0.904723 367.343 0.832424C368.347 0.832424 369.497 0.851356 370.792 0.887505C372.087 0.923655 373.232 0.940853 374.241 0.940853H382.852C383.283 0.940853 383.713 0.923081 384.143 0.887505C384.575 0.85196 385.009 0.869868 385.437 0.940853H388.449C389.094 0.940853 389.74 0.958651 390.388 0.994226C391.035 1.0298 391.644 1.0476 392.216 1.0476H394.154C394.8 1.04845 395.446 1.08463 396.089 1.15603H397.06C397.36 1.15923 397.655 1.23294 397.922 1.3712C398.353 1.51408 398.746 1.65697 399.107 1.79985C399.742 2.15187 400.353 2.54641 400.935 2.98074C401.511 3.4133 401.988 3.96309 402.335 4.59369C402.973 5.64757 403.394 6.81806 403.573 8.0365C403.752 9.24652 403.842 10.468 403.842 11.691C403.842 13.339 403.86 15.1832 403.897 17.2236C403.934 19.2641 403.97 21.3412 404.004 23.4551C404.039 25.5679 404.057 27.645 404.058 29.6866C404.059 31.7282 404.023 33.5724 403.951 35.2192C403.881 36.005 403.863 36.7946 403.897 37.5827C403.932 38.1209 403.913 38.6611 403.842 39.1957C403.767 39.7078 403.641 40.2112 403.466 40.6985C403.183 41.4068 402.841 42.0898 402.442 42.74C401.867 43.7445 401.055 44.5932 400.076 45.212C399.119 45.8389 398.034 46.2431 396.899 46.3946C395.826 46.5423 394.733 46.4125 393.724 46.0176C392.694 45.6038 391.826 44.869 391.248 43.9226C390.724 43.0773 390.258 42.198 389.851 41.2906C389.581 40.6701 389.382 40.021 389.258 39.3558C389.148 38.6814 389.13 37.9951 389.205 37.3159C389.276 36.5642 389.312 35.579 389.312 34.3602H357.548C357.026 34.3732 356.504 34.3188 355.996 34.1984C355.562 34.0752 355.146 33.8946 354.76 33.6614C354.306 33.3884 353.935 32.999 353.683 32.5338C353.214 31.488 352.993 30.3481 353.037 29.2029C352.978 28.0787 353.239 26.9609 353.79 25.9787C354.122 25.3377 354.678 24.8408 355.353 24.5827C355.887 24.4404 356.443 24.2975 357.019 24.154C357.24 24.166 357.46 24.129 357.665 24.0456C358.248 23.9012 358.842 23.8113 359.442 23.777C360.052 23.7426 360.678 23.6875 361.323 23.6152C362.33 23.5447 363.62 23.4913 365.201 23.4551L370.152 23.3467C371.877 23.3123 373.563 23.2945 375.21 23.2933H384.198C386.026 23.2933 387.73 23.3295 389.31 23.4018V19.2704C389.31 17.9449 389.238 16.5678 389.094 15.139C386.87 15.0702 384.304 14.9807 381.398 14.8705C378.491 14.7603 375.891 14.6714 373.596 14.6037L373.479 14.5864ZM428.157 83.8851C427.764 84.8541 427.04 85.6533 426.114 86.1418C425.333 86.6394 424.448 86.9521 423.527 87.0559C422.597 87.163 421.656 87.145 420.73 87.0026C419.732 86.8252 418.801 86.3788 418.038 85.7115C417.374 85.1127 416.874 84.355 416.584 83.5098C416.27 82.6517 416.019 81.7721 415.833 80.8778C415.634 79.8154 415.544 78.7358 415.563 77.6553V9.52724C415.563 8.52095 415.635 7.51594 415.779 6.51995C415.904 5.59256 416.101 4.67628 416.369 3.77945C416.576 3.03393 416.965 2.35103 417.5 1.79123C418.158 1.07699 419.024 0.587886 419.976 0.393458C420.901 0.245832 421.837 0.174425 422.774 0.179989C423.957 0.169251 425.118 0.505656 426.112 1.14744C427.107 1.78009 427.864 2.72464 428.263 3.83283C428.902 5.31268 429.268 6.89626 429.34 8.50644C429.412 10.1131 429.484 11.7427 429.556 13.3952C429.697 19.1264 429.733 24.8564 429.663 30.5852C429.593 36.314 429.557 41.7221 429.556 46.8095V73.6634C429.554 75.3309 429.464 76.9973 429.287 78.6555C429.087 80.4293 428.709 82.1784 428.157 83.8765V83.8851Z" fill="#FFC710"/>
</svg>
